<svg xmlns="http://www.w3.org/2000/svg" width="24" height="24" viewBox="0 0 24 24">
  <path fill="#FFF" fill-rule="evenodd" d="M23.1428571,12.1033166 C23.1428571,12.2283173 23.0982147,12.3354591 23.0089286,12.4247452 L17.8660714,17.1658166 C17.7232136,17.2908173 17.5669651,17.3176027 17.3973214,17.2461738 C17.2276777,17.1658162 17.1428571,17.0363532 17.1428571,16.8577809 L17.1428571,13.8577809 L0.428571429,13.8577809 C0.303570804,13.8577809 0.200893259,13.8176028 0.120535714,13.7372452 C0.0401781696,13.6568877 0,13.5542101 0,13.4292095 L0,10.8577809 C0,10.7327803 0.0401781696,10.6301028 0.120535714,10.5497452 C0.200893259,10.4693877 0.303570804,10.4292095 0.428571429,10.4292095 L17.1428571,10.4292095 L17.1428571,7.4292095 C17.1428571,7.24170856 17.2276777,7.11224557 17.3973214,7.04081664 C17.5669651,6.96938771 17.7232136,6.99170892 17.8660714,7.10778093 L23.0089286,11.7952809 C23.0982147,11.8845671 23.1428571,11.9872446 23.1428571,12.1033166 Z"/>
</svg>
