<svg xmlns="http://www.w3.org/2000/svg" width="60" height="60" viewBox="0 0 60 60">
  <path fill="#FFF" fill-rule="evenodd" d="M45.9665179,2.97321429 L45.9665179,11.8125 L40.7098214,11.8125 C38.790169,11.8125 37.4955391,12.2142817 36.8258929,13.0178571 C36.1562467,13.8214326 35.8214286,15.0267777 35.8214286,16.6339286 L35.8214286,22.9620536 L45.6316964,22.9620536 L44.3258929,32.8727679 L35.8214286,32.8727679 L35.8214286,58.2857143 L25.5758929,58.2857143 L25.5758929,32.8727679 L17.0379464,32.8727679 L17.0379464,22.9620536 L25.5758929,22.9620536 L25.5758929,15.6629464 C25.5758929,11.51114 26.7365955,8.29130608 29.0580357,6.00334821 C31.3794759,3.71539035 34.4709628,2.57142857 38.3325893,2.57142857 C41.6138557,2.57142857 44.1584731,2.7053558 45.9665179,2.97321429 Z"/>
</svg>
