<svg xmlns="http://www.w3.org/2000/svg" width="230" height="48" viewBox="0 0 230 48">
  <g fill="none">
    <path fill="#FFF" d="M97.1696813,33.2426071 C97.4428448,33.2426071 97.5885321,33.1520821 97.7342193,32.916717 L103.99877,21.2751961 C104.745417,19.8811104 105.492063,18.3602897 105.856282,17.6179843 C105.910914,17.4731442 106.038391,17.5274593 106.038391,17.6179843 L106.038391,38.2576946 C106.038391,38.4930597 106.184078,38.6197948 106.402609,38.6197948 L110.299742,38.6197948 C110.536483,38.6197948 110.66396,38.4749547 110.66396,38.2576946 L110.66396,10.5208208 C110.66396,10.2854556 110.518272,10.1587206 110.299742,10.1587206 L105.182478,10.1587206 C104.854682,10.1587206 104.672573,10.3035607 104.526886,10.5208208 L96.4048234,26.3627037 C96.3501907,26.4532287 96.3137689,26.4532287 96.2591362,26.3627037 L88.137074,10.5208208 C87.9913867,10.2854556 87.8092777,10.1587206 87.4814815,10.1587206 L82.364218,10.1587206 C82.1274763,10.1587206 82,10.3035607 82,10.5208208 L82,38.2757996 C82,38.5111648 82.1456872,38.6378998 82.364218,38.6378998 L86.2613511,38.6378998 C86.4980928,38.6378998 86.6255691,38.4930597 86.6255691,38.2757996 L86.6255691,17.6360893 C86.6255691,17.5455643 86.7712563,17.4912492 86.8076781,17.6360893 C87.1718961,18.3783947 87.9185431,19.8992154 88.6651901,21.2933011 L94.9297404,32.934822 C95.0754276,33.1701871 95.2029039,33.2607121 95.4942783,33.2607121 L97.1696813,33.2607121 L97.1696813,33.2426071 Z M158.358312,9.47073024 C158.358312,9.23536512 158.212625,9.10863005 157.994094,9.10863005 L154.096961,9.10863005 C153.860219,9.10863005 153.732743,9.25347013 153.732743,9.47073024 L153.732743,18.5775498 C153.732743,18.7223899 153.67811,18.7585999 153.550634,18.7223899 C151.838809,17.9800845 150.199828,17.5636693 148.342316,17.5636693 C142.587671,17.5636693 138.308109,21.4381412 138.308109,28.1007846 C138.308109,35.5781533 142.806202,39 147.978098,39 C150.400148,39 152.294081,38.3482197 154.242648,36.972239 L157.447767,38.5835848 C158.012305,38.8551599 158.376523,38.5835848 158.376523,38.0766445 L158.376523,9.47073024 L158.358312,9.47073024 Z M115.016365,28.1188896 C115.016365,35.8316234 120.224683,38.96379 125.41479,38.96379 C128.4378,38.96379 131.26049,38.1309596 133.68254,36.3385637 C133.919281,36.1575136 133.955703,36.0126735 133.828227,35.7410984 L132.571675,33.3874472 C132.425987,33.1158721 132.243878,33.1158721 132.007137,33.2426071 C129.785407,34.5280628 127.927895,35.1436331 125.687954,35.1436331 C123.047373,35.1436331 120.024363,33.8038624 119.605512,29.4586602 C119.605512,29.4043452 119.605512,29.3138202 119.7512,29.3138202 L134.283499,29.3138202 C134.756983,29.3138202 134.70235,28.5353048 134.70235,27.8292094 C134.70235,20.3880507 130.240679,17.5274593 125.269103,17.5274593 C119.459825,17.5455643 115.016365,21.3838262 115.016365,28.1188896 Z M182.505968,35.1436331 C180.557401,35.1436331 179.209795,34.4013277 178.608835,33.061557 C178.335671,32.4640917 178.189984,31.6674713 178.189984,30.4725407 L178.189984,18.1792396 C178.189984,17.9438745 178.044297,17.8171394 177.825766,17.8171394 L173.910422,17.8171394 C173.67368,17.8171394 173.546204,17.9619795 173.546204,18.1792396 L173.546204,30.6535908 C173.546204,32.5908268 173.819368,33.8943874 174.292851,34.944478 C175.549403,37.6602293 178.244617,38.96379 181.777532,38.96379 C184.418112,38.96379 186.421312,38.3120097 188.424511,36.936029 L191.62963,38.5473748 C192.194168,38.8189499 192.558386,38.5473748 192.558386,38.0404345 L192.558386,18.1973446 C192.558386,17.9619795 192.412698,17.8352444 192.194168,17.8352444 L188.297035,17.8352444 C188.060293,17.8352444 187.932817,17.9800845 187.932817,18.1973446 L187.932817,30.997586 C187.932817,32.1563066 187.878184,32.6632468 187.149748,33.4055522 C185.656454,34.7815329 184.126738,35.1436331 182.505968,35.1436331 Z M142.9701,28.1188896 C142.9701,23.6831623 145.428571,21.3838262 148.542636,21.3838262 C150.126984,21.3838262 151.565645,21.7459264 152.767565,22.8141219 C153.605266,23.5564273 153.696321,24.2082076 153.696321,25.7652384 L153.696321,30.979481 C153.696321,32.1382016 153.641688,32.6451418 152.913252,33.3874472 C151.474591,34.7815329 149.944875,35.1436331 148.542636,35.1436331 C146.084164,35.1436331 142.9701,33.5684973 142.9701,28.1188896 Z M163.785161,38.2757996 C163.785161,38.5111648 163.930848,38.6378998 164.149379,38.6378998 L168.046512,38.6378998 C168.283253,38.6378998 168.41073,38.4930597 168.41073,38.2757996 L168.41073,18.1792396 C168.41073,17.9438745 168.265042,17.8171394 168.046512,17.8171394 L164.149379,17.8171394 C163.912637,17.8171394 163.785161,17.9619795 163.785161,18.1792396 L163.785161,38.2757996 Z M119.787622,25.5298733 C120.261105,22.904647 122.209671,21.1846711 125.178048,21.1846711 C128.146425,21.1846711 129.967516,23.2124321 129.967516,25.6203983 C129.967516,25.7109234 129.912883,25.7652384 129.821828,25.7652384 L119.933309,25.7652384 C119.7512,25.7652384 119.787622,25.5841883 119.787622,25.5298733 Z M163.36631,11.5890163 C163.36631,13.019312 164.568229,14.1780326 166.097945,14.1780326 C167.627661,14.1780326 168.82958,13.019312 168.82958,11.5890163 C168.82958,10.1587206 167.627661,9 166.097945,9 C164.568229,9 163.36631,10.1587206 163.36631,11.5890163 Z M225.374431,38.2757996 C225.374431,38.5111648 225.520118,38.6378998 225.738649,38.6378998 L229.635782,38.6378998 C229.872524,38.6378998 230,38.4930597 230,38.2757996 L230,26.0911285 C230,23.7374774 229.635782,22.2528666 229.016611,21.057936 C227.723637,18.6137598 225.210533,17.5455643 222.13289,17.5455643 C219.346622,17.5455643 216.797096,18.5232348 214.793897,20.4604707 C213.300603,18.5232348 211.115295,17.5455643 208.474714,17.5455643 C205.961609,17.5455643 203.976621,18.1973446 202.064476,19.5733253 L198.859358,17.9619795 C198.29482,17.6904043 197.930602,17.9619795 197.930602,18.4689197 L197.930602,38.2757996 C197.930602,38.5111648 198.076289,38.6378998 198.29482,38.6378998 L202.191953,38.6378998 C202.428694,38.6378998 202.556171,38.4930597 202.556171,38.2757996 L202.556171,25.5298733 C202.556171,24.3349427 202.647225,23.7736874 203.248185,23.1219071 C204.267996,22.0175015 205.797711,21.4200362 207.38206,21.4200362 C209.986219,21.4200362 211.606989,22.904647 211.606989,25.6203983 L211.606989,38.2757996 C211.606989,38.5111648 211.752676,38.6378998 211.971207,38.6378998 L215.86834,38.6378998 C216.105082,38.6378998 216.232558,38.4930597 216.232558,38.2757996 L216.232558,25.5298733 C216.232558,24.3349427 216.323613,23.7736874 216.924572,23.1219071 C217.944383,22.0175015 219.474099,21.4200362 221.058447,21.4200362 C222.770272,21.4200362 224.081457,22.0718165 224.773471,23.3210622 C225.101267,23.9728425 225.283376,24.8056729 225.283376,25.9462885 L225.283376,38.2757996 L225.374431,38.2757996 Z"/>
    <path fill="#2FFC8D" d="M37.8136808,0.0545454545 C37.5218241,-0.0727272727 37.3029316,0.0545454545 37.3029316,0.381818182 L37.3029316,39.3090909 L54.4130293,47.8181818 C55.2521173,48.2363636 55.9452769,47.8181818 55.9452769,46.8545455 L55.9452769,9.4 C55.9452769,9.2 55.8540717,9.03636364 55.6716612,8.96363636 L37.8136808,0.0545454545 Z"/>
    <path fill="#03E370" d="M18.6423453,30.0181818 L36.9928339,0.309090909 C37.1570033,0.0363636364 37.5400651,-0.0727272727 37.8136808,0.0727272727 L55.5439739,8.89090909 C55.7628664,9 55.8540717,9.27272727 55.7081433,9.49090909 L37.2846906,39.3090909 L18.6423453,30.0181818 Z"/>
    <path fill="#10C767" d="M2.06123779,0.836363636 C0.93029316,0.254545455 0.54723127,0.690909091 1.20390879,1.78181818 L18.6423453,30.0181818 L37.2846906,39.3272727 L18.7700326,9.29090909 C18.6970684,9.16363636 18.5693811,9.05454545 18.4416938,8.98181818 L2.06123779,0.836363636 Z"/>
    <path fill="#00AB6C" d="M18.6423453,46.8727273 C18.6423453,47.8181818 17.9491857,48.2545455 17.1100977,47.8363636 L1.03973941,39.8181818 C0.456026059,39.5272727 0,38.7818182 0,38.1454545 L0,0.945454545 C0,0.309090909 0.456026059,0.0181818182 1.03973941,0.309090909 L18.4234528,8.98181818 C18.5511401,9.05454545 18.6605863,9.2 18.6605863,9.34545455 L18.6605863,46.8727273 L18.6423453,46.8727273 Z"/>
  </g>
</svg>
