<svg xmlns="http://www.w3.org/2000/svg" width="60" height="60" viewBox="0 0 60 60">
  <path fill="#FFF" d="M55.9491158,5.33274577 L2.80101094,25.8320781 C-0.826432761,27.2874772 -0.804920182,29.3107061 2.13982638,30.2128794 L15.3951243,34.3501278 L20.4669123,49.8998399 C21.0834928,51.6017521 20.7795452,52.2767551 22.5667221,52.2767551 C23.9459364,52.2767551 24.5577812,51.6479384 25.3259409,50.8975408 C25.8144279,50.4195147 28.7147636,47.5997019 31.9531963,44.4510777 L45.7411925,54.6382758 C48.2783694,56.0380144 50.1103483,55.3128814 50.7421267,52.2818865 L59.7928761,9.6312449 C60.7195237,5.91616955 58.3765554,4.23103289 55.9491158,5.33274577 Z M17.4753932,33.3995999 L47.352908,14.5496796 C48.8444238,13.6451385 50.2119925,14.1314557 49.0891599,15.1281684 L23.5061968,38.2104672 L22.510078,48.8348376 L17.4753932,33.3995999 Z"/>
</svg>
