<svg xmlns="http://www.w3.org/2000/svg" width="60" height="60" viewBox="0 0 60 60">
  <path fill="#FFF" fill-rule="evenodd" d="M55.4285714,30.7142857 C55.4285714,36.3169923 53.7935431,41.3560044 50.5234375,45.8314732 C47.2533319,50.306942 43.0290437,53.4040093 37.8504464,55.1227679 C37.2477648,55.2343756 36.806921,55.1562513 36.5279018,54.8883929 C36.2488825,54.6205344 36.109375,54.2857163 36.109375,53.8839286 L36.109375,46.8191964 C36.109375,44.654007 35.5290237,43.0692015 34.3683036,42.0647321 C35.6406314,41.9308029 36.7845931,41.7299121 37.8002232,41.4620536 C38.8158533,41.1941951 39.8649499,40.7589316 40.9475446,40.15625 C42.0301393,39.5535684 42.9341482,38.8113883 43.6595982,37.9296875 C44.3850483,37.0479867 44.9765602,35.8761234 45.4341518,34.4140625 C45.8917434,32.9520016 46.1205357,31.2723309 46.1205357,29.375 C46.1205357,26.6740936 45.2388481,24.3750095 43.4754464,22.4776786 C44.3013434,20.4464184 44.2120586,18.1696555 43.2075893,15.6473214 C42.5825862,15.4464276 41.6785773,15.5691942 40.4955357,16.015625 C39.3124941,16.4620558 38.2857186,16.9531223 37.4151786,17.4888393 L36.1428571,18.2924107 C34.0669539,17.7120507 31.9241182,17.421875 29.7142857,17.421875 C27.5044532,17.421875 25.3616175,17.7120507 23.2857143,18.2924107 C22.9285696,18.0468738 22.454244,17.7455375 21.8627232,17.3883929 C21.2712024,17.0312482 20.3392921,16.601565 19.0669643,16.0993304 C17.7946365,15.5970957 16.8348247,15.4464276 16.1875,15.6473214 C15.2053522,18.1696555 15.127228,20.4464184 15.953125,22.4776786 C14.1897233,24.3750095 13.3080357,26.6740936 13.3080357,29.375 C13.3080357,31.2723309 13.5368281,32.9464213 13.9944196,34.3973214 C14.4520112,35.8482215 15.0379429,37.0200848 15.7522321,37.9129464 C16.4665214,38.805808 17.3649499,39.5535684 18.4475446,40.15625 C19.5301393,40.7589316 20.579236,41.1941951 21.5948661,41.4620536 C22.6104961,41.7299121 23.7544579,41.9308029 25.0267857,42.0647321 C24.1339241,42.8683076 23.5870546,44.0178497 23.3861607,45.5133929 C22.9174084,45.7366083 22.4151813,45.9040173 21.8794643,46.015625 C21.3437473,46.1272327 20.707593,46.1830357 19.9709821,46.1830357 C19.2343713,46.1830357 18.5033518,45.9430828 17.7779018,45.4631696 C17.0524517,44.9832565 16.4330383,44.2857189 15.9196429,43.3705357 C15.4955336,42.6562464 14.9542444,42.0758951 14.2957589,41.6294643 C13.6372735,41.1830335 13.0848237,40.915179 12.6383929,40.8258929 L11.96875,40.7254464 C11.4999977,40.7254464 11.1763402,40.7756691 10.9977679,40.8761161 C10.8191955,40.976563 10.7633925,41.1049099 10.8303571,41.2611607 C10.8973218,41.4174115 10.9977672,41.5736599 11.1316964,41.7299107 C11.2656257,41.8861615 11.4107135,42.0200887 11.5669643,42.1316964 L11.8013393,42.2991071 C12.2924132,42.5223225 12.7778994,42.9464254 13.2578125,43.5714286 C13.7377256,44.1964317 14.0892846,44.7656224 14.3125,45.2790179 L14.6473214,46.0491071 C14.9375015,46.8973257 15.428568,47.5837027 16.1205357,48.1082589 C16.8125035,48.6328151 17.5602638,48.9676332 18.3638393,49.1127232 C19.1674147,49.2578132 19.9430766,49.3359374 20.6908482,49.3470982 C21.4386198,49.358259 22.0580333,49.3191969 22.5491071,49.2299107 L23.3191964,49.0959821 C23.3191964,49.9442007 23.3247767,50.9374943 23.3359375,52.0758929 C23.3470983,53.2142914 23.3526786,53.816964 23.3526786,53.8839286 C23.3526786,54.2857163 23.2075907,54.6205344 22.9174107,54.8883929 C22.6272307,55.1562513 22.1808066,55.2343756 21.578125,55.1227679 C16.3995277,53.4040093 12.1752396,50.306942 8.90513393,45.8314732 C5.63502829,41.3560044 4,36.3169923 4,30.7142857 C4,26.0490838 5.14954208,21.7466715 7.44866071,17.8069196 C9.74777935,13.8671678 12.8671678,10.7477794 16.8069196,8.44866071 C20.7466715,6.14954208 25.0490838,5 29.7142857,5 C34.3794876,5 38.6818999,6.14954208 42.6216518,8.44866071 C46.5614036,10.7477794 49.6807921,13.8671678 51.9799107,17.8069196 C54.2790294,21.7466715 55.4285714,26.0490838 55.4285714,30.7142857 Z"/>
</svg>
