<svg xmlns="http://www.w3.org/2000/svg" xmlns:xlink="http://www.w3.org/1999/xlink" width="1600" height="1054" viewBox="0 0 1600 1054">
  <defs>
    <rect id="home-cover-bg-a" width="1600" height="1054"/>
    <path id="home-cover-bg-c" d="M1014.18639,71.3773448 L1815.57407,872.76503 C1854.6265,911.817459 1854.6265,975.133957 1815.57407,1014.18639 L1014.18639,1815.57407 C975.133957,1854.6265 911.817459,1854.6265 872.76503,1815.57407 L71.3773448,1014.18639 C32.3249156,975.133957 32.3249156,911.817459 71.3773448,872.76503 L872.76503,71.3773448 C911.817459,32.3249156 975.133957,32.3249156 1014.18639,71.3773448 Z"/>
    <linearGradient id="home-cover-bg-d" x1="86.22%" x2="24.987%" y1="16.967%" y2="76.164%">
      <stop offset="0%" stop-color="#123075"/>
      <stop offset="100%" stop-color="#092056"/>
    </linearGradient>
    <path id="home-cover-bg-f" d="M1014.18639,71.3773448 L1815.57407,872.76503 C1854.6265,911.817459 1854.6265,975.133957 1815.57407,1014.18639 L1014.18639,1815.57407 C975.133957,1854.6265 911.817459,1854.6265 872.76503,1815.57407 L71.3773448,1014.18639 C32.3249156,975.133957 32.3249156,911.817459 71.3773448,872.76503 L872.76503,71.3773448 C911.817459,32.3249156 975.133957,32.3249156 1014.18639,71.3773448 Z"/>
    <path id="home-cover-bg-h" d="M1014.18639,71.3773448 L1815.57407,872.76503 C1854.6265,911.817459 1854.6265,975.133957 1815.57407,1014.18639 L1014.18639,1815.57407 C975.133957,1854.6265 911.817459,1854.6265 872.76503,1815.57407 L71.3773448,1014.18639 C32.3249156,975.133957 32.3249156,911.817459 71.3773448,872.76503 L872.76503,71.3773448 C911.817459,32.3249156 975.133957,32.3249156 1014.18639,71.3773448 Z"/>
    <path id="home-cover-bg-j" d="M1014.18639,71.3773448 L1815.57407,872.76503 C1854.6265,911.817459 1854.6265,975.133957 1815.57407,1014.18639 L1014.18639,1815.57407 C975.133957,1854.6265 911.817459,1854.6265 872.76503,1815.57407 L71.3773448,1014.18639 C32.3249156,975.133957 32.3249156,911.817459 71.3773448,872.76503 L872.76503,71.3773448 C911.817459,32.3249156 975.133957,32.3249156 1014.18639,71.3773448 Z"/>
  </defs>
  <g fill="none" fill-rule="evenodd">
    <mask id="home-cover-bg-b" fill="#fff">
      <use xlink:href="#home-cover-bg-a"/>
    </mask>
    <use fill="#FFF" xlink:href="#home-cover-bg-a"/>
    <g mask="url(#home-cover-bg-b)">
      <g transform="translate(536 -944)">
        <mask id="home-cover-bg-e" fill="#fff">
          <use xlink:href="#home-cover-bg-c"/>
        </mask>
        <path fill="url(#home-cover-bg-d)" d="M1014.18639,71.3773448 L1815.57407,872.76503 C1854.6265,911.817459 1854.6265,975.133957 1815.57407,1014.18639 L1014.18639,1815.57407 C975.133957,1854.6265 911.817459,1854.6265 872.76503,1815.57407 L71.3773448,1014.18639 C32.3249156,975.133957 32.3249156,911.817459 71.3773448,872.76503 L872.76503,71.3773448 C911.817459,32.3249156 975.133957,32.3249156 1014.18639,71.3773448 Z" mask="url(#home-cover-bg-e)"/>
        <mask id="home-cover-bg-g" fill="#fff">
          <use xlink:href="#home-cover-bg-f"/>
        </mask>
        <path fill="#1A47B0" d="M1245.94043,816.9329 L1890.19328,1461.18575 C1929.24571,1500.23817 1929.24571,1563.55467 1890.19328,1602.6071 L1245.94043,2246.85995 C1206.88801,2285.91238 1143.57151,2285.91238 1104.51908,2246.85995 L460.266234,1602.6071 C421.213804,1563.55467 421.213804,1500.23817 460.266234,1461.18575 L1104.51908,816.9329 C1143.57151,777.880471 1206.88801,777.880471 1245.94043,816.9329 Z" mask="url(#home-cover-bg-g)" opacity=".1" style="mix-blend-mode:screen"/>
        <g>
          <mask id="home-cover-bg-i" fill="#fff">
            <use xlink:href="#home-cover-bg-h"/>
          </mask>
          <path fill="#1A47B0" d="M1013.71821,-34.4155023 L1657.97106,609.837343 C1697.02349,648.889772 1697.02349,712.20627 1657.97106,751.258699 L1013.71821,1395.51154 C974.665784,1434.56397 911.349286,1434.56397 872.296857,1395.51154 L228.044011,751.258699 C188.991582,712.20627 188.991582,648.889772 228.044011,609.837343 L872.296857,-34.4155023 C911.349286,-73.4679315 974.665784,-73.4679315 1013.71821,-34.4155023 Z" mask="url(#home-cover-bg-i)" opacity=".1" style="mix-blend-mode:screen"/>
        </g>
        <g>
          <mask id="home-cover-bg-k" fill="#fff">
            <use xlink:href="#home-cover-bg-j"/>
          </mask>
          <path fill="#1A47B0" d="M13.7182128,181.377345 L657.971058,825.63019 C697.023487,864.682619 697.023487,927.999117 657.971058,967.051546 L13.7182128,1611.30439 C-25.3342164,1650.35682 -88.6507143,1650.35682 -127.703143,1611.30439 L-771.955989,967.051546 C-811.008418,927.999117 -811.008418,864.682619 -771.955989,825.63019 L-127.703143,181.377345 C-88.6507143,142.324916 -25.3342164,142.324916 13.7182128,181.377345 Z" mask="url(#home-cover-bg-k)" opacity=".1" style="mix-blend-mode:screen"/>
        </g>
      </g>
    </g>
  </g>
</svg>
