<svg xmlns="http://www.w3.org/2000/svg" xmlns:xlink="http://www.w3.org/1999/xlink" width="1440" height="960" viewBox="0 0 1440 960">
  <defs>
    <rect id="home-cover-1440-bg-a" width="1440" height="960"/>
    <path id="home-cover-1440-bg-c" d="M1014.18639,71.3773448 L1815.57407,872.76503 C1854.6265,911.817459 1854.6265,975.133957 1815.57407,1014.18639 L1014.18639,1815.57407 C975.133957,1854.6265 911.817459,1854.6265 872.76503,1815.57407 L71.3773448,1014.18639 C32.3249156,975.133957 32.3249156,911.817459 71.3773448,872.76503 L872.76503,71.3773448 C911.817459,32.3249156 975.133957,32.3249156 1014.18639,71.3773448 Z"/>
    <linearGradient id="home-cover-1440-bg-d" x1="86.22%" x2="24.987%" y1="16.967%" y2="76.164%">
      <stop offset="0%" stop-color="#123075"/>
      <stop offset="100%" stop-color="#092056"/>
    </linearGradient>
    <path id="home-cover-1440-bg-f" d="M1014.18639,71.3773448 L1815.57407,872.76503 C1854.6265,911.817459 1854.6265,975.133957 1815.57407,1014.18639 L1014.18639,1815.57407 C975.133957,1854.6265 911.817459,1854.6265 872.76503,1815.57407 L71.3773448,1014.18639 C32.3249156,975.133957 32.3249156,911.817459 71.3773448,872.76503 L872.76503,71.3773448 C911.817459,32.3249156 975.133957,32.3249156 1014.18639,71.3773448 Z"/>
    <path id="home-cover-1440-bg-h" d="M1014.18639,71.3773448 L1815.57407,872.76503 C1854.6265,911.817459 1854.6265,975.133957 1815.57407,1014.18639 L1014.18639,1815.57407 C975.133957,1854.6265 911.817459,1854.6265 872.76503,1815.57407 L71.3773448,1014.18639 C32.3249156,975.133957 32.3249156,911.817459 71.3773448,872.76503 L872.76503,71.3773448 C911.817459,32.3249156 975.133957,32.3249156 1014.18639,71.3773448 Z"/>
    <path id="home-cover-1440-bg-j" d="M972.186386,14.7330785 L1773.57407,415.43772 C1812.6265,434.96446 1812.6265,466.623563 1773.57407,486.150303 L972.186386,886.854944 C933.133957,906.381685 869.817459,906.381685 830.76503,886.854944 L29.3773448,486.150303 C-9.67508439,466.623563 -9.67508439,434.96446 29.3773448,415.43772 L830.76503,14.7330785 C869.817459,-4.7936623 933.133957,-4.7936623 972.186386,14.7330785 Z"/>
  </defs>
  <g fill="none" fill-rule="evenodd">
    <mask id="home-cover-1440-bg-b" fill="#fff">
      <use xlink:href="#home-cover-1440-bg-a"/>
    </mask>
    <use fill="#FFF" xlink:href="#home-cover-1440-bg-a"/>
    <g mask="url(#home-cover-1440-bg-b)">
      <g transform="translate(432 -912)">
        <mask id="home-cover-1440-bg-e" fill="#fff">
          <use xlink:href="#home-cover-1440-bg-c"/>
        </mask>
        <path fill="url(#home-cover-1440-bg-d)" d="M1014.18639,71.3773448 L1815.57407,872.76503 C1854.6265,911.817459 1854.6265,975.133957 1815.57407,1014.18639 L1014.18639,1815.57407 C975.133957,1854.6265 911.817459,1854.6265 872.76503,1815.57407 L71.3773448,1014.18639 C32.3249156,975.133957 32.3249156,911.817459 71.3773448,872.76503 L872.76503,71.3773448 C911.817459,32.3249156 975.133957,32.3249156 1014.18639,71.3773448 Z" mask="url(#home-cover-1440-bg-e)"/>
        <mask id="home-cover-1440-bg-g" fill="#fff">
          <use xlink:href="#home-cover-1440-bg-f"/>
        </mask>
        <path fill="#1A47B0" d="M1245.94043,816.9329 L1890.19328,1461.18575 C1929.24571,1500.23817 1929.24571,1563.55467 1890.19328,1602.6071 L1245.94043,2246.85995 C1206.88801,2285.91238 1143.57151,2285.91238 1104.51908,2246.85995 L460.266234,1602.6071 C421.213804,1563.55467 421.213804,1500.23817 460.266234,1461.18575 L1104.51908,816.9329 C1143.57151,777.880471 1206.88801,777.880471 1245.94043,816.9329 Z" mask="url(#home-cover-1440-bg-g)" opacity=".1" style="mix-blend-mode:screen"/>
        <g>
          <mask id="home-cover-1440-bg-i" fill="#fff">
            <use xlink:href="#home-cover-1440-bg-h"/>
          </mask>
          <path fill="#1A47B0" d="M1013.71821,-34.4155023 L1657.97106,609.837343 C1697.02349,648.889772 1697.02349,712.20627 1657.97106,751.258699 L1013.71821,1395.51154 C974.665784,1434.56397 911.349286,1434.56397 872.296857,1395.51154 L228.044011,751.258699 C188.991582,712.20627 188.991582,648.889772 228.044011,609.837343 L872.296857,-34.4155023 C911.349286,-73.4679315 974.665784,-73.4679315 1013.71821,-34.4155023 Z" mask="url(#home-cover-1440-bg-i)" opacity=".1" style="mix-blend-mode:screen"/>
        </g>
        <g transform="translate(42 42)">
          <mask id="home-cover-1440-bg-k" fill="#fff">
            <use xlink:href="#home-cover-1440-bg-j"/>
          </mask>
          <path fill="#1A47B0" d="M-28.2817872,139.377345 L615.971058,783.63019 C655.023487,822.682619 655.023487,885.999117 615.971058,925.051546 L-28.2817872,1569.30439 C-67.3342164,1608.35682 -130.650714,1608.35682 -169.703143,1569.30439 L-813.955989,925.051546 C-853.008418,885.999117 -853.008418,822.682619 -813.955989,783.63019 L-169.703143,139.377345 C-130.650714,100.324916 -67.3342164,100.324916 -28.2817872,139.377345 Z" mask="url(#home-cover-1440-bg-k)" opacity=".1" style="mix-blend-mode:screen"/>
        </g>
      </g>
    </g>
  </g>
</svg>
