<svg xmlns="http://www.w3.org/2000/svg" width="88" height="88" viewBox="0 0 88 88">
  <g fill="none" fill-rule="evenodd" stroke-width="2">
    <rect width="86" height="86" x="1" y="1" stroke="#D7DDED" rx="43"/>
    <g stroke="#FFF" transform="translate(13 13)">
      <path d="M46 40L50 40C56.627 40 62 34.628 62 28 62 22.053 58 17 52 17 52 12 49 8 43 8L42 8C39.272 3.076 34.028 0 28 0 19.164 0 12 7.164 12 16 5.373 16 0 21.373 0 28 0 34.628 5.373 40 12 40L16 40M34 22L34 32M34 18L34 20M28 16L28 26M28 28L28 30M28 35L28 37M18 17C18 10.925 23 6 28 6"/>
      <path d="M45,49.5 C45,56.9558571 38.9558571,63 31.5,63 C24.0441429,63 18,56.9558571 18,49.5 C18,42.0441429 24.0441429,36 31.5,36 C38.9558571,36 45,42.0441429 45,49.5 Z"/>
      <path d="M36 46C36 43.791 34.209 42 32 42 29.791 42 28 43.791 28 46 28 48.209 30 49 32 50 34 51 36 51.791 36 54 36 56.209 34.209 58 32 58 29.791 58 28 56.209 28 54M32 42L32 39M32 58L32 61"/>
    </g>
  </g>
</svg>
