<svg xmlns="http://www.w3.org/2000/svg" width="95" height="95" viewBox="0 0 95 95">
  <g fill="none" fill-rule="evenodd" stroke="#0F358E" stroke-width="2" transform="translate(1 1)">
    <path d="M64.5 85.5L51 88.5M88.5 51L85.5 63M46.5 72L46.5 84M51 46.5C51 48.984 48.984 51 46.5 51 44.016 51 42 48.984 42 46.5 42 44.016 44.016 42 46.5 42 48.984 42 51 44.016 51 46.5zM51 25.5C51 27.984 48.984 30 46.5 30 44.016 30 42 27.984 42 25.5 42 23.016 44.016 21 46.5 21 48.984 21 51 23.016 51 25.5zM51 4.5C51 6.984 48.984 9 46.5 9 44.016 9 42 6.984 42 4.5 42 2.016 44.016 0 46.5 0 48.984 0 51 2.016 51 4.5zM51 67.5C51 69.984 48.984 72 46.5 72 44.016 72 42 69.984 42 67.5 42 65.016 44.016 63 46.5 63 48.984 63 51 65.016 51 67.5zM51 88.5C51 90.984 48.984 93 46.5 93 44.016 93 42 90.984 42 88.5 42 86.016 44.016 84 46.5 84 48.984 84 51 86.016 51 88.5zM31.5 34.5C31.5 36.984 29.484 39 27 39 24.516 39 22.5 36.984 22.5 34.5 22.5 32.016 24.516 30 27 30 29.484 30 31.5 32.016 31.5 34.5zM70.5 34.5C70.5 36.984 68.484 39 66 39 63.516 39 61.5 36.984 61.5 34.5 61.5 32.016 63.516 30 66 30 68.484 30 70.5 32.016 70.5 34.5zM88.5 67.5C88.5 65.016 86.484 63 84 63 81.516 63 79.5 65.016 79.5 67.5 79.5 69.984 81.516 72 84 72 86.484 72 88.5 69.984 88.5 67.5zM73.5 84C73.5 81.516 71.484 79.5 69 79.5 66.516 79.5 64.5 81.516 64.5 84 64.5 86.484 66.516 88.5 69 88.5 71.484 88.5 73.5 86.484 73.5 84zM31.5 58.5C31.5 60.984 29.484 63 27 63 24.516 63 22.5 60.984 22.5 58.5 22.5 56.016 24.516 54 27 54 29.484 54 31.5 56.016 31.5 58.5zM70.5 58.5C70.5 60.984 68.484 63 66 63 63.516 63 61.5 60.984 61.5 58.5 61.5 56.016 63.516 54 66 54 68.484 54 70.5 56.016 70.5 58.5zM30 21L33 21M30 72L33 72M60 72L63 72M16.5 46.5L19.5 46.5M60 21L63 21M73.5 46.5L76.5 46.5M72 81L81 70.5M64.5 7.5L51 4.5M88.5 42L85.5 30M88.5 25.5C88.5 27.984 86.484 30 84 30 81.516 30 79.5 27.984 79.5 25.5 79.5 23.016 81.516 21 84 21 86.484 21 88.5 23.016 88.5 25.5zM73.5 9C73.5 11.484 71.484 13.5 69 13.5 66.516 13.5 64.5 11.484 64.5 9 64.5 6.516 66.516 4.5 69 4.5 71.484 4.5 73.5 6.516 73.5 9zM93 46.5C93 44.016 90.984 42 88.5 42 86.016 42 84 44.016 84 46.5 84 48.984 86.016 51 88.5 51 90.984 51 93 48.984 93 46.5zM72 12L81 22.5M28.5 85.5L42 88.5M4.5 51L7.5 63M4.5 67.5C4.5 65.016 6.516 63 9 63 11.484 63 13.5 65.016 13.5 67.5 13.5 69.984 11.484 72 9 72 6.516 72 4.5 69.984 4.5 67.5zM19.5 84C19.5 81.516 21.516 79.5 24 79.5 26.484 79.5 28.5 81.516 28.5 84 28.5 86.484 26.484 88.5 24 88.5 21.516 88.5 19.5 86.484 19.5 84zM21 81L12 70.5M28.5 7.5L42 4.5M4.5 42L7.5 30M4.5 25.5C4.5 27.984 6.516 30 9 30 11.484 30 13.5 27.984 13.5 25.5 13.5 23.016 11.484 21 9 21 6.516 21 4.5 23.016 4.5 25.5zM19.5 9C19.5 11.484 21.516 13.5 24 13.5 26.484 13.5 28.5 11.484 28.5 9 28.5 6.516 26.484 4.5 24 4.5 21.516 4.5 19.5 6.516 19.5 9zM0 46.5C0 44.016 2.016 42 4.5 42 6.984 42 9 44.016 9 46.5 9 48.984 6.984 51 4.5 51 2.016 51 0 48.984 0 46.5zM21 12L12 22.5M42 67.5L31.5 61.5M27 54L27 39M31.5 37.5L42 45M51 45L61.5 37.5M46.5 21L46.5 9M51 27L61.5 31.5M51 67.5L61.5 61.5M70.5 61.5L79.5 66M22.5 61.5L13.5 66M66 39L66 54M22.5 33L13.5 28.5"/>
  </g>
</svg>
