<svg xmlns="http://www.w3.org/2000/svg" width="89" height="89" viewBox="0 0 89 89">
  <g fill="none" fill-rule="evenodd" stroke="#D7DDED" stroke-width="2">
    <rect width="87" height="87" x="1" y="1" rx="43.5"/>
    <g transform="translate(13 13)">
      <path stroke-linejoin="round" d="M31 63L31 40M36 5C36 7.762 33.762 10 31 10 28.238 10 26 7.762 26 5 26 2.238 28.238 0 31 0 33.762 0 36 2.238 36 5zM38 37L38 63"/>
      <path stroke-linecap="round" stroke-linejoin="round" d="M21.2549,17 C22.5209,15.187 24.6209,14 26.9999,14 L34.9999,14 C38.8659,14 41.9999,17.134 41.9999,21 L41.9999,31"/>
      <path stroke-linejoin="round" d="M24,63 L24,44"/>
      <path d="M28,37 C25.791,37 24,38.791 24,41 L24,44 C24,47.866 20.866,51 17,51 C13.134,51 10,47.866 10,44 C10,42.093 10.763,40.263 12,39 C10.729,40.297 8.959,41 7,41 C3.134,41 0,37.866 0,34 C0,30.134 3.134,27 7,27 C8.959,27 10.729,27.703 12,29 C10.764,27.738 10,25.906 10,24 C10,20.134 13.134,17 17,17 C20.866,17 24,20.134 24,24 L24,27 C24,29.209 25.791,31 28,31 L62,31 L62,37 L28,37 Z"/>
      <path stroke-linejoin="round" d="M20 24C20 25.656 18.657 27 17 27 15.343 27 14 25.656 14 24 14 22.344 15.343 21 17 21 18.657 21 20 22.344 20 24zM20 44C20 45.656 18.657 47 17 47 15.343 47 14 45.656 14 44 14 42.344 15.343 41 17 41 18.657 41 20 42.344 20 44zM10 34C10 35.656 8.657 37 7 37 5.343 37 4 35.656 4 34 4 32.344 5.343 31 7 31 8.657 31 10 32.344 10 34zM18 34L16 34M22 34L20 34"/>
      <polyline points="55 45 52 45 52 37 60 37 60 45 57 45"/>
      <path stroke-linejoin="round" d="M56 44L56 40M31 17L31 19M31 21L31 23"/>
    </g>
  </g>
</svg>
