<svg xmlns="http://www.w3.org/2000/svg" width="128" height="128" viewBox="0 0 128 128">
  <g fill="none" fill-rule="evenodd" stroke="#F3F5FA" stroke-width="4" transform="translate(14 2)">
    <path d="M82 6L68 6C63.582 6 60 9.582 60 14L60 110C60 114.418 63.582 118 68 118L82 118M88 6C88 9.312 90.688 12 94 12 97.312 12 100 9.312 100 6 100 2.688 97.312 0 94 0 90.688 0 88 2.688 88 6zM88 82C88 85.312 90.688 88 94 88 97.312 88 100 85.312 100 82 100 78.688 97.312 76 94 76 90.688 76 88 78.688 88 82zM88 118C88 121.312 90.688 124 94 124 97.312 124 100 121.312 100 118 100 114.688 97.312 112 94 112 90.688 112 88 114.688 88 118zM50 82L82 82M88 44C88 47.312 90.688 50 94 50 97.312 50 100 47.312 100 44 100 40.688 97.312 38 94 38 90.688 38 88 40.688 88 44zM50 44L82 44M22 126L22 80M32 10C32 15.524 27.524 20 22 20 16.476 20 12 15.524 12 10 12 4.476 16.476 0 22 0 27.524 0 32 4.476 32 10zM8 126L8 74 0 74 0 42C0 34.268 6.268 28 14 28L30 28C37.732 28 44 34.268 44 42L44 74 36 74 36 126M22 34L22 38M22 42L22 46"/>
  </g>
</svg>
