<svg xmlns="http://www.w3.org/2000/svg" width="89" height="89" viewBox="0 0 89 89">
  <g fill="none" fill-rule="evenodd" stroke="#D7DDED" stroke-width="2">
    <rect width="87" height="87" x="1" y="1" rx="43.5"/>
    <g transform="translate(14 15)">
      <path d="M18 59L18 52C18 42 25 43 32 39M48 39C55 43 62 42 62 52L62 59"/>
      <polygon points="44 43 40 41 36 43 32 39 34 36 40 37 46 36 48 39"/>
      <path d="M45 32L45 36M35 36L35 32M39 50L41 50M39 46L41 46M49 19C49 12.925 46.075 10 40 10 33.925 10 31 12.925 31 19L31 23C32 30 35 32 35 32 37 33 40 33 40 33 40 33 43 33 45 32 45 32 48 30 49 23L49 19z"/>
      <polyline points="31 19 35 17 40 19 45 21 49 19"/>
      <path d="M21 40L20 40C8.954 40 0 31.046 0 20 0 8.954 8.954 0 20 0 26.084 0 31.332 2.714 35 7M26 59L26 53M54 59L54 53"/>
      <path d="M24 16C24 13.791 22.209 12 20 12 17.791 12 16 13.791 16 16 16 18.209 18 19 20 20 22 21 24 21.791 24 24 24 26.209 22.209 28 20 28 17.791 28 16 26.209 16 24M20 12L20 9M20 28L20 31"/>
    </g>
  </g>
</svg>
