<svg xmlns="http://www.w3.org/2000/svg" width="95" height="96" viewBox="0 0 95 96">
  <g fill="none" fill-rule="evenodd" stroke="#0F358E" stroke-width="2" transform="translate(17 16)">
    <path d="M10,0.0793650794 C15.5161721,-8.96825397 25.4127461,-15 36.7032879,-15 C54.011472,-15 68.0451751,-0.820873016 68.0451751,16.6666667 L77,36.2698413 L77,39.2857143 L68.0451751,39.2857143 L68.0451751,52.8571429 C68.0451751,57.8544444 64.034906,61.9047619 59.0903502,61.9047619 L50.1355253,61.9047619 L50.1355253,80"/>
    <path stroke-linejoin="round" d="M18,80 L18,61.7931034 C18,52.8489655 13.6064797,44.7484138 10,36"/>
    <path d="M51,62 L46,62"/>
    <polyline points="44.87 19.5 44.87 27 50.957 27 50.957 21 54 21 54 15 19 15"/>
    <path d="M14,18 C14,26.2845 7.2845,33 -1,33 C-9.2845,33 -16,26.2845 -16,18 C-16,9.7155 -9.2845,3 -1,3 C7.2845,3 14,9.7155 14,18 Z"/>
    <path d="M-1 18.5C-1 20.9855-3.016 23-5.5 23-7.984 23-10 20.9855-10 18.5-10 16.0145-7.984 14-5.5 14-3.016 14-1 16.0145-1 18.5zM14 21L40 21M55 9L52 9M49 9L46 9M43 9L40 9"/>
  </g>
</svg>
