<svg xmlns="http://www.w3.org/2000/svg" width="89" height="89" viewBox="0 0 89 89">
  <g fill="none" fill-rule="evenodd" stroke-width="2">
    <rect width="87" height="87" x="1" y="1" stroke="#D7DDED" rx="43.5"/>
    <g stroke="#FFF" transform="translate(14 13)">
      <path d="M13 44L6 37 6 36C6 34.344 7.344 33 9 33L10 33 20 43C22 45 22 48 22 48L22 56 11 56 11 54C11 54 11 52 9 50L2 43C0 41 0 39 0 39L0 23C0 21.344 1.344 20 3 20 4.656 20 6 21.344 6 23L6 31M49 44L56 37 56 36C56 34.344 54.656 33 53 33L52 33 42 43C40 45 40 48 40 48L40 56 51 56 51 54C51 54 51 52 53 50L60 43C62 41 62 39 62 39L62 23C62 21.344 60.656 20 59 20 57.344 20 56 21.344 56 23L56 31M38 63L38 57C38 56.447 38.447 56 39 56L52 56C52.553 56 53 56.447 53 57L53 63M9 63L9 57C9 56.447 9.447 56 10 56L23 56C23.553 56 24 56.447 24 57L24 63M50.8877 22.1064C50.9597 21.4144 50.9997 20.7124 50.9997 20.0004 50.9997 19.2894 50.9597 18.5864 50.8877 17.8944L46.6857 16.8424C46.5517 16.1774 46.3667 15.5324 46.1557 14.9004L49.2697 11.8864C48.6937 10.5894 47.9777 9.3724 47.1507 8.2384L42.9877 9.4274C42.5447 8.9264 42.0737 8.4554 41.5727 8.0124L42.7617 3.8494C41.6277 3.0224 40.4097 2.3074 39.1137 1.7304L36.1007 4.8454C35.4677 4.6324 34.8227 4.4494 34.1577 4.3154L33.1057.1134C32.4127.0414 31.7117.0004 30.9997.0004 30.2877.0004 29.5867.0414 28.8947.1134L27.8427 4.3154C27.1777 4.4494 26.5317 4.6324 25.8987 4.8454L22.8867 1.7304C21.5897 2.3074 20.3717 3.0224 19.2387 3.8494L20.4277 8.0124C19.9267 8.4554 19.4547 8.9264 19.0127 9.4274L14.8497 8.2384C14.0227 9.3724 13.3067 10.5894 12.7307 11.8864L15.8447 14.9004C15.6317 15.5324 15.4477 16.1774 15.3147 16.8424L11.1127 17.8944C11.0397 18.5864 10.9997 19.2894 10.9997 20.0004 10.9997 20.7124 11.0397 21.4144 11.1127 22.1064L15.3147 23.1584C15.4477 23.8234 15.6317 24.4684 15.8447 25.1014L12.7307 28.1144C13.3067 29.4114 14.0227 30.6284 14.8497 31.7624L19.0127 30.5734C19.4547 31.0744 19.9267 31.5454 20.4277 31.9884L19.2387 36.1514C20.3717 36.9784 21.5897 37.6934 22.8867 38.2704L25.8987 35.1564C26.5317 35.3694 27.1777 35.5524 27.8427 35.6854L28.8947 39.8884C29.5867 39.9604 30.2877 40.0004 30.9997 40.0004 31.7117 40.0004 32.4127 39.9604 33.1057 39.8884L34.1577 35.6854C34.8227 35.5524 35.4677 35.3694 36.1007 35.1564L39.1137 38.2704C40.4097 37.6934 41.6277 36.9784 42.7617 36.1514L41.5727 31.9884C42.0737 31.5454 42.5447 31.0744 42.9877 30.5734L47.1507 31.7624C47.9777 30.6284 48.6937 29.4114 49.2697 28.1144L46.1557 25.1014C46.3667 24.4684 46.5517 23.8234 46.6857 23.1584L50.8877 22.1064z"/>
      <path d="M42,20 C42,26.076 37.075,31 31,31 C24.925,31 20,26.076 20,20 C20,13.926 24.925,9 31,9 C37.075,9 42,13.926 42,20 Z"/>
      <path d="M38,20 C38,23.867 34.866,27 31,27 C27.133,27 24,23.867 24,20 C24,16.135 27.133,13 31,13 C34.866,13 38,16.135 38,20 Z"/>
    </g>
  </g>
</svg>
