<svg xmlns="http://www.w3.org/2000/svg" width="128" height="128" viewBox="0 0 128 128">
  <g fill="none" fill-rule="evenodd" stroke="#F3F5FA" stroke-width="4" transform="translate(2 2)">
    <path d="M56,60 C51.582,60 48,63.582 48,68 L48,74 C48,81.732 41.732,88 34,88 C26.268,88 20,81.732 20,74 C20,70.186 21.526,66.526 24,64 C21.458,66.594 17.918,68 14,68 C6.268,68 0,61.732 0,54 C0,46.268 6.268,40 14,40 C17.918,40 21.458,41.406 24,44 C21.528,41.476 20,37.812 20,34 C20,26.268 26.268,20 34,20 C41.732,20 48,26.268 48,34 L48,40 C48,44.418 51.582,48 56,48 L124,48 L124,60 L56,60 Z"/>
    <path stroke-linejoin="round" d="M40 34C40 37.314 37.314 40 34 40 30.686 40 28 37.314 28 34 28 30.688 30.686 28 34 28 37.314 28 40 30.688 40 34zM40 74C40 77.314 37.314 80 34 80 30.686 80 28 77.314 28 74 28 70.688 30.686 68 34 68 37.314 68 40 70.688 40 74zM20 54C20 57.314 17.314 60 14 60 10.686 60 8 57.314 8 54 8 50.688 10.686 48 14 48 17.314 48 20 50.688 20 54zM36 54L32 54M44 54L40 54"/>
    <polyline points="110 76 104 76 104 60 120 60 120 76 114 76"/>
    <path stroke-linejoin="round" d="M112,74 L112,66"/>
    <path d="M82,90 C84.448,88.178 86,85.288 86,82 C86,76.476 81.524,72 76,72 C70.476,72 66,76.476 66,82 C66,85.288 67.552,88.178 70,90 L66,112 L66,116 L86,116 L86,112 L82,90 Z"/>
    <path stroke-linejoin="round" d="M60 82L56 82M96 82L92 82"/>
    <path d="M12 34L12 2C12 .894 12.894 0 14 0L110 0C111.106 0 112 .894 112 2L112 42M112 82L112 122C112 123.106 111.106 124 110 124L14 124C12.894 124 12 123.106 12 122L12 74M106 8L18 8M18 116L60 116M92 116L106 116"/>
  </g>
</svg>
