<svg xmlns="http://www.w3.org/2000/svg" width="128" height="128" viewBox="0 0 128 128">
  <g fill="none" fill-rule="evenodd" stroke="#F3F5FA" stroke-width="4" transform="translate(2 2)">
    <path d="M12 118C12 121.314 9.314 124 6 124 2.686 124 0 121.314 0 118 0 114.686 2.686 112 6 112 9.314 112 12 114.686 12 118zM64 118C64 121.314 61.314 124 58 124 54.686 124 52 121.314 52 118 52 114.686 54.686 112 58 112 61.314 112 64 114.686 64 118zM124 118C124 121.314 121.314 124 118 124 114.686 124 112 121.314 112 118 112 114.686 114.686 112 118 112 121.314 112 124 114.686 124 118zM44 96C44 99.314 41.314 102 38 102 34.686 102 32 99.314 32 96 32 92.686 34.686 90 38 90 41.314 90 44 92.686 44 96zM30 30C30 33.314 27.314 36 24 36 20.686 36 18 33.314 18 30 18 26.686 20.686 24 24 24 27.314 24 30 26.686 30 30zM106 38C106 41.314 103.314 44 100 44 96.686 44 94 41.314 94 38 94 34.686 96.686 32 100 32 103.314 32 106 34.686 106 38zM124 54C124 57.314 121.314 60 118 60 114.686 60 112 57.314 112 54 112 50.686 114.686 48 118 48 121.314 48 124 50.686 124 54zM12 6C12 9.314 9.314 12 6 12 2.686 12 0 9.314 0 6 0 2.686 2.686 0 6 0 9.314 0 12 2.686 12 6zM64 6C64 9.314 61.314 12 58 12 54.686 12 52 9.314 52 6 52 2.686 54.686 0 58 0 61.314 0 64 2.686 64 6zM124 6C124 9.314 121.314 12 118 12 114.686 12 112 9.314 112 6 112 2.686 114.686 0 118 0 121.314 0 124 2.686 124 6zM12 74C12 77.314 9.314 80 6 80 2.686 80 0 77.314 0 74 0 70.686 2.686 68 6 68 9.314 68 12 70.686 12 74zM86 74C86 77.314 83.314 80 80 80 76.686 80 74 77.314 74 74 74 70.686 76.686 68 80 68 83.314 68 86 70.686 86 74zM64 54C64 57.314 61.314 60 58 60 54.686 60 52 57.314 52 54 52 50.686 54.686 48 58 48 61.314 48 64 50.686 64 54zM12 74L74 74M58 48L58 12M22 6L18 6M30 6L26 6M112 6L92 6M88 6L84 6M80 6L76 6M26 46L22 46M26 54L22 54M34 54L30 54M42 54L38 54M92 68L96 68M92 76L96 76M92 96L96 96M92 88L96 88M84 104L88 104M100 96L104 96M76 96L80 96M84 96L88 96M100 68L104 68M18 118L22 118M26 118L30 118M34 118L38 118M42 118L46 118M108 68L112 68M56 104L60 104M22 96L26 96M4 104L8 104M4 96L8 96M56 96L60 96M56 88L60 88M118 12L118 48M6 12L6 62M64 118L112 118M118 112L118 66M30 30L58 30M88 38L84 38M80 38L76 38M72 38L68 38M80 30L76 30M108 18L104 18"/>
  </g>
</svg>
