<svg xmlns="http://www.w3.org/2000/svg" width="100" height="100" viewBox="0 0 100 100">
  <g fill="#FFF">
    <path d="M50,0 C22.4307692,0 0,22.4288462 0,50 C0,77.5711538 22.4307692,100 50,100 C77.5692308,100 100,77.5711538 100,50 C100,22.4288462 77.5692308,0 50,0 Z M50,96.1538462 C24.5519231,96.1538462 3.84615385,75.4480769 3.84615385,50 C3.84615385,24.5519231 24.5519231,3.84615385 50,3.84615385 C75.4480769,3.84615385 96.1538462,24.5519231 96.1538462,50 C96.1538462,75.4480769 75.4480769,96.1538462 50,96.1538462 Z"/>
    <path d="M73.5615385,29.4923077 L44.0057692,62.7423077 L26.2,48.4980769 C25.3730769,47.8346154 24.1596154,47.9711538 23.4980769,48.7980769 C22.8346154,49.6288462 22.9692308,50.8384615 23.7980769,51.5019231 L43.0288462,66.8865385 C43.3826923,67.1692308 43.8076923,67.3076923 44.2307692,67.3076923 C44.7615385,67.3076923 45.2903846,67.0884615 45.6692308,66.6615385 L76.4384615,32.0461538 C77.1442308,31.2538462 77.0730769,30.0365385 76.2788462,29.3326923 C75.4826923,28.625 74.2692308,28.6961538 73.5615385,29.4923077 Z"/>
  </g>
</svg>
