<svg xmlns="http://www.w3.org/2000/svg" width="60" height="60" viewBox="0 0 60 60">
  <path fill="#FFF" fill-rule="evenodd" d="M52.859375,27.9821429 C54.2433105,27.9821429 55.3984329,28.4341473 56.3247768,29.3381696 C57.2511207,30.242192 57.7142857,31.3749932 57.7142857,32.7366071 C57.7142857,34.9017965 56.6763497,36.3526749 54.6004464,37.0892857 L48.8415179,39.0647321 L50.7165179,44.65625 C50.8727686,45.1250023 50.9508929,45.6495507 50.9508929,46.2299107 C50.9508929,47.5468816 50.4821475,48.6852631 49.5446429,49.6450893 C48.6071382,50.6049155 47.4799173,51.0848214 46.1629464,51.0848214 C45.113834,51.0848214 44.1596025,50.7834852 43.3002232,50.1808036 C42.4408439,49.578122 41.8437517,48.7745586 41.5089286,47.7700893 L39.6674107,42.2455357 L29.2879464,45.7946429 L31.1294643,51.2857143 C31.3080366,51.8214313 31.3973214,52.3459796 31.3973214,52.859375 C31.3973214,54.1763459 30.9285761,55.3147273 29.9910714,56.2745536 C29.0535667,57.2343798 27.9151853,57.7142857 26.5758929,57.7142857 C25.5267805,57.7142857 24.5781292,57.4129494 23.7299107,56.8102679 C22.8816922,56.2075863 22.2901802,55.4040229 21.9553571,54.3995536 L20.1138393,48.9419643 L14.9910714,50.7165179 C14.3437468,50.9174117 13.7857166,51.0178571 13.3169643,51.0178571 C11.9553503,51.0178571 10.8225492,50.571433 9.91852679,49.6785714 C9.01450441,48.7857098 8.5625,47.658489 8.5625,46.296875 C8.5625,45.2477626 8.86941657,44.2991114 9.48325893,43.4508929 C10.0971013,42.6026743 10.8950844,42.0111624 11.8772321,41.6763393 L17.1004464,39.9017857 L13.5848214,29.421875 L8.36160714,31.2299107 C7.7812471,31.408483 7.24553817,31.4977679 6.75446429,31.4977679 C5.41517188,31.4977679 4.287951,31.0457634 3.37276786,30.1417411 C2.45758471,29.2377187 2,28.1160781 2,26.7767857 C2,25.7276733 2.30691657,24.7790221 2.92075893,23.9308036 C3.53460128,23.082585 4.33258438,22.4910731 5.31473214,22.15625 L10.5714286,20.3816964 L8.796875,15.0580357 C8.61830268,14.5223188 8.52901786,13.9977704 8.52901786,13.484375 C8.52901786,12.1450826 8.99776317,11.0011208 9.93526786,10.0524554 C10.8727725,9.1037899 12.011154,8.62946429 13.3504464,8.62946429 C14.3995588,8.62946429 15.34821,8.93080056 16.1964286,9.53348214 C17.0446471,10.1361637 17.636159,10.9397271 17.9709821,11.9441964 L19.7790179,17.3013393 L30.1584821,13.7857143 L28.3504464,8.42857143 C28.1718741,7.89285446 28.0825893,7.36830614 28.0825893,6.85491071 C28.0825893,5.53793984 28.5569149,4.39955837 29.5055804,3.43973214 C30.4542458,2.47990592 31.587047,2 32.9040179,2 C33.9531302,2 34.9073618,2.30691657 35.7667411,2.92075893 C36.6261204,3.53460128 37.2232126,4.33258438 37.5580357,5.31473214 L39.3325893,10.7053571 L44.7566964,8.86383929 C45.2254488,8.72991004 45.7053547,8.66294643 46.1964286,8.66294643 C47.535721,8.66294643 48.6796828,9.10379023 49.6283482,9.98549107 C50.5770137,10.8671919 51.0513393,11.9665113 51.0513393,13.2834821 C51.0513393,14.2879515 50.7165212,15.1975406 50.046875,16.0122768 C49.3772288,16.827013 48.5513442,17.401784 47.5691964,17.7366071 L42.3125,19.5446429 L45.828125,30.125 L51.3191964,28.25 C51.8549134,28.0714277 52.3683011,27.9821429 52.859375,27.9821429 Z M26.2745536,36.7544643 L36.6540179,33.2388393 L33.1383929,22.6919643 L22.7589286,26.2745536 L26.2745536,36.7544643 Z"/>
</svg>
