<svg xmlns="http://www.w3.org/2000/svg" width="60" height="60" viewBox="0 0 60 60">
  <path fill="#FFF" fill-rule="evenodd" d="M60,46.4799107 L60,53.4776786 L38.5044643,53.4776786 L38.5044643,46.4799107 L42.9910714,46.4799107 L42.9910714,15.4754464 L42.7901786,15.4754464 L32.2767857,53.4776786 L24.140625,53.4776786 L13.7611607,15.4754464 L13.4933036,15.4754464 L13.4933036,46.4799107 L18.0133929,46.4799107 L18.0133929,53.4776786 L0,53.4776786 L0,46.4799107 L2.31026786,46.4799107 C2.7790202,46.4799107 3.25892612,46.262279 3.75,45.8270089 C4.24107388,45.3917389 4.48660714,44.9732163 4.48660714,44.5714286 L4.48660714,15.0736607 C4.48660714,14.671873 4.24107388,14.2254489 3.75,13.734375 C3.25892612,13.2433011 2.7790202,12.9977679 2.31026786,12.9977679 L0,12.9977679 L0,6 L22.5,6 L29.8995536,33.4888393 L30.1004464,33.4888393 L37.5669643,6 L60,6 L60,12.9977679 L57.6227679,12.9977679 C57.1986586,12.9977679 56.7410739,13.2433011 56.25,13.734375 C55.7589261,14.2254489 55.5133929,14.671873 55.5133929,15.0736607 L55.5133929,44.5714286 C55.5133929,44.9732163 55.7533458,45.3917389 56.2332589,45.8270089 C56.713172,46.262279 57.1763371,46.4799107 57.6227679,46.4799107 L60,46.4799107 Z"/>
</svg>
