<svg xmlns="http://www.w3.org/2000/svg" width="60" height="60" viewBox="0 0 60 60">
  <path fill="#FFF" fill-rule="evenodd" d="M54.5657758,9.93018885 C52.5026033,11.1825318 50.2228393,12.0933266 47.7861854,12.5806574 C45.8451926,10.456395 43.0711558,9.12907812 40,9.12907812 C34.1131552,9.12907812 29.3356473,14.0273773 29.3356473,20.0683353 C29.3356473,20.9249823 29.4272822,21.7580264 29.6105519,22.5591371 C20.744186,22.1023513 12.8844151,17.7524728 7.61957654,11.1256071 C6.70045123,12.7472663 6.17563346,14.6285575 6.17563346,16.6306401 C6.17563346,20.4251559 8.05831309,23.7739931 10.9225963,25.7358119 C9.17598056,25.6830524 7.52794169,25.1860028 6.08677543,24.371008 L6.08677543,24.5056835 C6.08677543,29.808009 9.76466505,34.2314731 14.6490802,35.2325144 C13.7549462,35.4893697 12.8108296,35.6171031 11.8375564,35.6171031 C11.150295,35.6171031 10.4796946,35.551848 9.82992017,35.4241146 C11.187782,39.7684395 15.1253037,42.9326186 19.7945158,43.015923 C16.1443943,45.9524034 11.5418258,47.7017959 6.54494967,47.7017959 C5.68413745,47.7017959 4.83304408,47.6518133 4,47.551848 C8.72058313,50.650772 14.331135,52.4626429 20.3540437,52.4626429 C39.9791739,52.4626429 50.7073933,35.7962076 50.7073933,21.3387275 C50.7073933,20.862504 50.6990628,20.3876689 50.6810135,19.9211642 C52.7650121,18.3772558 54.5754946,16.452924 56,14.2592413 C54.0895522,15.1283839 52.0319334,15.7170684 49.8743492,15.9808657 C52.0777508,14.6285575 53.7688303,12.483469 54.5657758,9.93018885"/>
</svg>
