<svg xmlns="http://www.w3.org/2000/svg" width="253" height="49" viewBox="0 0 253 49">
  <g fill="none">
    <path fill="#FBC119" d="M16.4033018,39.9510701 C17.4612381,39.9721774 18.9000314,38.9801364 20.2541898,37.7981302 C23.9781255,34.5687203 29.6486639,36.3839442 30.7489176,41.1541836 C31.3836794,43.8981266 30.1564733,46.7053914 27.7443786,48.1195774 C25.2899665,49.5548707 22.1796338,49.2171546 20.1272375,47.2119655 C18.7730791,45.8822085 17.2708096,45.0590256 15.3453656,45.1012401 C13.5891914,45.1434546 12.1715568,45.8822085 10.9443507,47.0853219 C8.9554305,49.0482966 6.18363748,49.5337634 3.72922534,48.3939717 C1.31713065,47.2752872 -0.121662671,44.8690603 0.0264484067,42.1673318 C0.111083308,40.6476095 0.703527618,39.3178525 1.76146388,38.199168 C4.68136798,35.0752944 4.68136798,31.9936354 1.76146388,28.9119763 C-0.587154628,26.4213203 -0.587154628,22.6009074 1.76146388,20.1102514 C4.68136798,17.0074851 4.68136798,13.9047187 1.76146388,10.8230597 C-0.608313354,8.24797468 -0.544837178,4.32202544 1.93073369,1.83136948 C4.34282838,-0.574857475 8.27835129,-0.617071982 10.8173983,1.74694046 C13.694985,4.42756171 16.8264763,4.617527 19.7675392,1.97912025 C22.8567131,-0.807037268 26.8980296,-0.405999443 29.4370766,2.16908554 C31.5529492,4.32202544 34.8113929,4.36423995 37.265805,2.5068016 C38.5564873,1.53586792 39.7413759,0.438290715 41.4129152,0.121681906 C44.7559938,-0.553750221 48.2683422,1.74694046 48.8819452,5.06077933 C49.5590244,8.67011975 47.2527234,12.1106021 43.7826924,12.680498 C41.582185,13.0393213 39.6778997,12.4483182 38.0698366,10.8863814 C35.2557261,8.18465291 31.8703301,8.18465291 29.0773783,10.8652742 C26.4113789,13.4403591 22.6451258,13.4403591 19.9791264,10.8863814 C17.3342857,8.35351095 13.9065722,8.18465291 11.4521601,10.4431291 C8.48993854,13.1659648 8.15139894,16.6908763 10.7327634,19.6247846 C12.4889376,21.6299737 13.3352866,23.8251281 12.4889376,26.4002131 C12.150398,27.4344685 11.4521601,28.3842949 10.7327634,29.2285851 C8.97658923,31.297096 8.532256,33.5555722 9.61135099,35.9829064 C10.7327634,38.4946696 12.7005249,39.9510701 16.4033018,39.9510701 Z"/>
    <path fill="#FFF" d="M172.52331 17.5228733C172.52331 11.6324757 172.52331 5.86920906 172.52331 0 174.036557 0 175.486753 0 177 0 177 12.7130882 177 25.4685534 177 38.287584 175.549805 38.287584 174.099609 38.287584 172.52331 38.287584 172.52331 37.2493485 172.52331 36.211113 172.52331 34.8762387 170.71582 37.1857831 168.551036 38.329961 166.00794 38.7961076 159.576639 40.0038509 153.397546 35.7237779 152.283628 29.197726 151.527004 24.790522 152.199558 20.6587684 155.331139 17.2686115 159.114258 13.1368578 166.028957 12.395261 170.40056 15.5947216 171.136167 16.1032451 171.745669 16.8024649 172.52331 17.5228733zM172.52331 26.1465848C172.502293 25.8075691 172.481275 25.3414225 172.439241 24.8964644 172.060929 21.1249149 169.244608 18.2432816 165.671663 17.9466429 161.426163 17.6076272 158.210513 19.6840983 157.222699 23.5827787 156.928456 24.790522 156.823369 26.1042078 156.928456 27.3543282 157.201681 30.4478463 158.588825 32.8633331 161.573285 34.0710764 165.986922 35.8720973 172.502293 33.8591916 172.52331 26.1465848zM253 38C250.747368 38 248.684211 38 246.536842 38 242.978947 34.0254566 239.357895 29.9667958 235.610526 25.781959 235.610526 29.9247371 235.610526 33.9203099 235.610526 37.9789707 234.010526 37.9789707 232.536842 37.9789707 231 37.9789707 231 25.3193138 231 12.7017156 231 0 232.473684 0 233.926316 0 235.505263 0 235.505263 8.07526287 235.505263 16.1505257 235.505263 24.2888766 238.957895 20.8610957 242.347368 17.5384615 245.652632 14.257886 247.778947 14.257886 249.8 14.257886 252.031579 14.257886 248.284211 17.9169895 244.663158 21.449917 240.957895 25.0459325 244.957895 29.3148866 248.894737 33.5628113 253 38zM200.429969 31.5130738C201.561995 32.368255 202.631131 33.18172 203.867974 34.1203335 203.17618 34.80865 202.589204 35.5178247 201.876446 36.1018509 196.509804 40.5863375 187.474559 39.7520144 183.491504 34.3914885 178.795692 28.0506329 180.619511 16.8707033 189.969209 14.4928824 197.935318 12.4487908 203.951828 16.9541356 204.769402 24.4630435 204.895183 25.6310959 204.916146 26.7991482 205 28.092349 198.585185 28.092349 192.296151 28.092349 186.007117 28.092349 185.692666 30.219873 187.11818 32.6185519 189.445123 33.8908946 191.310869 34.9337985 193.32336 35.2466697 195.419705 34.8920824 197.557976 34.537495 199.025418 33.0565715 200.429969 31.5130738zM200.07359 24.5047597C199.801065 19.8951245 197.243525 17.5173037 192.799274 17.6633102 189.151634 17.7884587 185.881337 21.0214607 185.923263 24.4839016 190.619076 24.5047597 195.314888 24.5047597 200.07359 24.5047597zM98.4585403 14.0002373C105.402952 13.958362 110.958481 19.4649575 110.999941 26.4162491 111.02067 33.4303535 105.610248 38.9578866 98.6451066 38.9997619 91.5555877 39.0416371 86.0000583 33.5559793 86.0000583 26.4999996 85.9793287 19.548708 91.4933989 14.0211749 98.4585403 14.0002373zM90.7885929 26.3743738C90.7264042 29.8918949 92.2396641 32.6347238 94.9345104 33.9747318 98.7072953 35.8381804 103.309264 34.4772348 105.195656 30.9387761 107.372263 26.8559392 106.128488 21.3493437 102.542269 19.2555812 97.0696579 16.0730622 90.8922409 19.8208971 90.7885929 26.3743738zM143.47876 37.9793532C143.47876 33.5402811 143.499725 29.1631496 143.47876 24.8066649 143.47876 23.9601442 143.436829 23.0723297 143.248141 22.2464559 142.744973 19.934009 141.151607 18.4887297 138.92928 18.2203207 136.036063 17.8693243 133.478291 18.9636072 132.471955 21.3792883 131.842994 22.8658613 131.528514 24.5382559 131.465618 26.1487099 131.318861 30.0716108 131.423687 33.9945117 131.423687 37.9793532 129.956113 37.9793532 128.509505 37.9793532 127 37.9793532 127 30.2367856 127 22.4529243 127 14.6071225 128.446609 14.6071225 129.851287 14.6071225 131.381757 14.6071225 131.381757 15.7220523 131.381757 16.8163351 131.381757 17.9312649 132.849331 15.8046397 134.841038 14.545182 137.293983 14.1735388 143.898066 13.1411964 147.902447 16.8163351 147.965343 22.494218 148.028239 27.6352829 147.986308 32.7969946 147.986308 38 146.455838 37.9793532 144.988264 37.9793532 143.47876 37.9793532zM208 34.6637724C209.103623 33.7654536 210.207246 32.8671347 211.332092 31.9479247 212.074915 32.5119854 212.754068 33.0969372 213.518114 33.5983245 215.619243 35.0189217 217.890159 35.0189217 220.182299 34.141494 221.222251 33.7445624 221.986298 33.0342638 222.092415 31.8643602 222.198533 30.610892 221.476933 29.7961377 220.436981 29.3156415 219.418252 28.8560366 218.314629 28.5844518 217.253454 28.2710847 215.937595 27.8950443 214.57929 27.6025684 213.284656 27.1638545 207.511859 25.1791966 208.169788 18.6820532 211.332092 16.1333346 214.706631 13.4174869 221.222251 13.2294667 224.596791 15.9453144 225.233496 16.4675928 225.764084 17.1361091 226.422013 17.8255166 225.148602 18.7865089 223.981309 19.6430455 222.771568 20.5413643 220.967569 18.4731419 218.7391 17.7628432 216.08616 18.4522507 214.982537 18.7447266 214.027479 19.2878962 213.857691 20.5413643 213.666679 21.8157236 214.345832 22.7558248 215.449455 23.2154298 216.765313 23.7585993 218.187288 24.0928575 219.566817 24.4897891 220.606769 24.8031561 221.689169 25.0120675 222.707897 25.4089991 225.042484 26.2864268 226.634248 27.8741531 226.931377 30.4228718 227.24973 33.1387195 226.485684 35.4994179 224.10865 37.0871442 220.882675 39.2598224 217.274677 39.3224958 213.624232 38.5495238 211.056186 37.9854631 209.20974 36.6693215 208 34.6637724zM85 17.7852644C83.8478363 18.8330599 82.7170089 19.8389435 81.7995451 20.6562239 80.2846632 19.8808553 78.9618085 18.8749717 77.4895993 18.4977653 72.9662898 17.3451903 69.1684167 19.8179876 68.2082802 24.323508 67.845562 26.0628484 67.845562 27.7812329 68.4003075 29.4996175 70.1925622 34.8643301 76.7641629 36.5617587 80.9887633 32.7477833 81.2021269 32.5591801 81.3941542 32.370577 81.6075179 32.1819738 82.6743361 33.271681 83.7198181 34.3194765 84.7653 35.3672719 81.5221724 39.7889687 72.3688715 40.2919105 67.3121529 36.2264642 61.9780614 31.9514588 61.5086614 22.7727707 66.3733528 17.6804849 71.0886896 12.7558463 80.1993177 12.7558463 85 17.7852644zM116 14C117.371429 14 118.666667 14 120 14 120 22.0070609 120 29.9717564 120 38 118.685714 38 117.371429 38 116 38 116 30.0141218 116 22.070609 116 14zM115 6.51092544C115 4.54569044 116.515924 3 118.477707 3 120.43949 3 122 4.50152786 122 6.46676285 122 8.40991655 120.461783 9.97768829 118.522293 9.99976958 116.605096 10.0218509 115.022293 8.45407914 115 6.51092544z"/>
    <path fill="#FBC119" d="M24.5231871 23.0003396C25.8782321 23.0233733 27.0230114 24.1980885 26.9996486 25.5570728 26.9762857 26.9160571 25.7614179 28.0447051 24.4063729 27.9986379 23.0746908 27.9525706 22 26.8239226 22 25.5110056 22 24.1289876 23.1681422 22.977306 24.5231871 23.0003396zM42.4658271 27.9996415C41.0708696 27.9762786 39.9549035 26.8081381 40.0014021 25.4297323 40.0479007 24.0980521 41.1638667 23 42.4890764 23 43.884034 23 45 24.1214149 45 25.5231835 45 26.9015894 43.8375354 28.0230043 42.4658271 27.9996415zM42.5341729 43.9997105C41.1392153 44.0185714 40 43.1132505 40 42.0004602 40 40.9253915 41.0694675 40.0200706 42.4179264 40.0012098 43.8361333 39.9634881 44.9753486 40.8122264 44.9985979 41.9438776 45.0450965 43.0566679 43.9291304 43.9808497 42.5341729 43.9997105z"/>
  </g>
</svg>
