<svg xmlns="http://www.w3.org/2000/svg" xmlns:xlink="http://www.w3.org/1999/xlink" width="614" height="697" viewBox="0 0 614 697">
  <defs>
    <filter id="page-home__cover-img-a" width="156.5%" height="147.4%" x="-23.9%" y="-20%" filterUnits="objectBoundingBox">
      <feOffset dx="20" dy="20" in="SourceAlpha" result="shadowOffsetOuter1"/>
      <feGaussianBlur in="shadowOffsetOuter1" result="shadowBlurOuter1" stdDeviation="40"/>
      <feColorMatrix in="shadowBlurOuter1" result="shadowMatrixOuter1" values="0 0 0 0 0.0901960784   0 0 0 0 0.129411765   0 0 0 0 0.2  0 0 0 0.4 0"/>
      <feMerge>
        <feMergeNode in="shadowMatrixOuter1"/>
        <feMergeNode in="SourceGraphic"/>
      </feMerge>
    </filter>
    <polygon id="page-home__cover-img-b" points="0 .332 459.908 .332 459.908 371.61 0 371.61"/>
    <linearGradient id="page-home__cover-img-d" x1="100%" x2=".594%" y1="0%" y2="99.406%">
      <stop offset="0%" stop-color="#FA2B56"/>
      <stop offset="100%" stop-color="#F91C3D"/>
    </linearGradient>
  </defs>
  <g fill="none" fill-rule="evenodd" filter="url(#page-home__cover-img-a)" transform="translate(57 56)">
    <path fill="#647391" d="M61.7933769,434 C60.1744817,432.309312 58.5618478,430.572184 57,428.835056 L67.4974259,420 C68.9646584,421.63146 70.4798943,423.263593 72,424.851305 L61.7933769,434 Z"/>
    <g transform="translate(0 49)">
      <mask id="page-home__cover-img-c" fill="#fff">
        <use xlink:href="#page-home__cover-img-b"/>
      </mask>
      <path fill="#647391" d="M210.968863,15.0442942 L209.753848,1.13861313 C214.52093,0.723341088 219.371204,0.452541839 224.169046,0.331798874 L224.519289,14.2863355 C220.008772,14.3994011 215.450018,14.6541478 210.968863,15.0442942 Z M251.625033,15.2829884 C247.152967,14.838403 242.599805,14.5292173 238.092085,14.3638064 L238.605216,0.414853283 C243.403058,0.590733208 248.249137,0.920159099 253.010626,1.39266191 L251.625033,15.2829884 Z M184.158833,19.0790634 L181.210778,5.43371257 C185.894669,4.42519475 190.674334,3.55207655 195.416948,2.83948368 L197.499532,16.6418702 C193.04634,17.3118889 188.557495,18.131964 184.158833,19.0790634 Z M278.379137,19.6534649 C273.993058,18.6491347 269.516097,17.7725268 265.071994,17.0466732 L267.32935,3.27150619 C272.062176,4.04412158 276.830657,4.97796023 281.503362,6.0471985 L278.379137,19.6534649 Z M158.075854,26.4457801 L153.426219,13.2813073 C157.94862,11.6893148 162.580778,10.221555 167.194061,8.91850807 L171.001295,22.3495925 C166.669745,23.5730747 162.321416,24.9508008 158.075854,26.4457801 Z M304.385915,27.3642642 C300.152237,25.8113561 295.814395,24.3750034 291.494729,23.0942904 L295.473939,9.71275947 C300.076036,11.0765268 304.697009,12.6077989 309.206827,14.2619077 L304.385915,27.3642642 Z M133.148468,37.0334724 L126.873453,24.5592585 C131.15397,22.4131047 135.557526,20.3765268 139.96248,18.5053598 L145.435641,31.3494799 C141.301234,33.1061854 137.167526,35.0178326 133.148468,37.0334724 Z M329.223119,38.296737 C325.218043,36.2238664 321.098316,34.2521966 316.97859,32.4389583 L322.619532,19.6667257 C327.007708,21.5986131 331.394486,23.6966094 335.659623,25.9055775 L329.223119,38.296737 Z M109.753483,50.6655625 L101.960748,39.0756338 C105.939957,36.4088195 110.054091,33.8355287 114.189897,31.425555 L121.238103,43.4810071 C117.35397,45.7437163 113.490109,48.1606694 109.753483,50.6655625 Z M352.479684,52.2554612 C348.768924,49.6989208 344.93093,47.2282266 341.071964,44.9117764 L348.276067,32.9484518 C352.384608,35.4149583 356.470778,38.0454799 360.421325,40.7667332 L352.479684,52.2554612 Z M88.2355502,67.1235962 L79.0558237,56.5952285 C82.6708085,53.4538176 86.4312036,50.386388 90.2342432,47.4773899 L98.7379514,58.5578251 C95.1656109,61.2902454 91.6317204,64.172722 88.2355502,67.1235962 Z M373.801872,69.0038364 C370.439957,66.0055024 366.94172,63.0755662 363.403635,60.2970822 L372.049258,49.3269208 C375.815246,52.2840765 379.53859,55.4017576 383.116523,58.592722 L373.801872,69.0038364 Z M68.9316292,86.1409621 L58.508924,76.8367745 C61.7044559,73.2689246 65.0544863,69.7562116 68.4667356,66.3949508 L78.2868267,76.3314687 C75.0815076,79.4889321 71.9342128,82.7887745 68.9316292,86.1409621 Z M392.860413,88.2654799 C389.901173,84.8756038 386.796523,81.5352811 383.633149,78.3380353 L393.579775,68.5285418 C396.947283,71.9316788 400.251173,75.4869659 403.401264,79.0945981 L392.860413,88.2654799 Z M52.1458237,107.418943 L40.6416292,99.4848045 C43.3666748,95.5484443 46.2532097,91.6434912 49.221538,87.8802191 L60.2056109,96.5171797 C57.4169483,100.052925 54.7051854,103.720579 52.1458237,107.418943 Z M409.356796,109.739581 C406.847769,106.011206 404.18634,102.312842 401.446614,98.746388 L412.540444,90.2511084 C415.457739,94.0471835 418.291143,97.9849396 420.962359,101.954103 L409.356796,109.739581 Z M38.1521763,130.630208 L25.7433617,124.198726 C27.9531793,119.948992 30.3293799,115.711821 32.8048511,111.606561 L44.7837264,118.805075 C42.4592584,122.661172 40.227769,126.640107 38.1521763,130.630208 Z M423.02397,133.089037 C421.004304,129.080092 418.829441,125.080219 416.558802,121.202486 L428.631356,114.159611 C431.048802,118.289998 433.364881,122.548107 435.515277,126.817382 L423.02397,133.089037 Z M27.1883769,155.420902 L14.0664924,150.601653 C15.7240304,146.104152 17.5479514,141.599671 19.487921,137.213142 L32.2784377,142.851769 C30.4573131,146.969592 28.7445471,151.199086 27.1883769,155.420902 Z M433.641021,157.969765 C432.142176,153.733292 430.487435,149.489142 428.722237,145.35387 L441.585459,139.88205 C443.465307,144.286726 445.227708,148.808654 446.824426,153.32151 L433.641021,157.969765 Z M19.4515684,181.381337 L5.82494225,178.255979 C6.89874164,173.589577 8.13612766,168.896654 9.50354407,164.30912 L22.9050638,168.28945 C21.621538,172.596414 20.4596535,177.00109 19.4515684,181.381337 Z M441.033878,184.006973 C440.08172,179.613465 438.977161,175.194133 437.750261,170.872512 L451.201416,167.06527 C452.508711,171.668857 453.685277,176.376437 454.699653,181.056099 L441.033878,184.006973 Z M15.0605957,208.089262 L1.14874164,206.699671 C1.62621884,201.932767 2.26168997,197.123289 3.03697872,192.404542 L16.8348815,194.665157 C16.1064316,199.096354 15.5094103,203.612699 15.0605957,208.089262 Z M445.087891,210.770733 C444.694304,206.286493 444.15321,201.761773 443.481386,197.323596 L457.305854,195.237465 C458.02172,199.961795 458.59707,204.778253 459.015824,209.550043 L445.087891,210.770733 Z M0.0707477204,235.49303 L0.0588632219,234.964692 C0.0197142857,233.234508 0.000139817629,231.474313 0.000139817629,229.736452 C0.000139817629,226.860955 0.0539696049,223.948467 0.161629179,221.079949 L14.1329058,221.599214 C14.0329362,224.295341 13.9819027,227.033345 13.9819027,229.736452 C13.9819027,231.37032 14.0007781,233.025825 14.0371307,234.656902 L14.0483161,235.148249 L0.0707477204,235.49303 Z M459.755459,238.363641 L445.782784,237.857638 C445.87786,235.22921 445.926796,232.562395 445.926796,229.92978 C445.926796,228.293818 445.907921,226.639011 445.871568,225.010028 L445.85479,224.299529 L459.83166,223.940092 L459.849836,224.698748 C459.888286,226.42963 459.908559,228.190523 459.908559,229.92978 C459.908559,232.7299 459.856827,235.567709 459.755459,238.363641 Z M2.56719149,264.194958 C1.85621884,259.472024 1.28646201,254.656962 0.871902736,249.885172 L14.801234,248.678441 C15.1906261,253.162681 15.7268267,257.686005 16.3937568,262.123484 L2.56719149,264.194958 Z M456.90248,267.06906 L443.103878,264.820309 C443.828833,260.384925 444.42166,255.864392 444.866979,251.382943 L458.78093,252.759971 C458.306948,257.531761 457.674973,262.346125 456.90248,267.06906 Z M8.6408693,292.368549 C7.33846809,287.763566 6.16679635,283.055289 5.15801216,278.375626 L18.8272827,275.439409 C19.773848,279.833615 20.8742128,284.252947 22.0962188,288.575964 L8.6408693,292.368549 Z M450.45479,295.189608 L437.050474,291.220444 C438.331204,286.90999 439.490292,282.501127 440.495581,278.116692 L454.124304,281.231581 C453.054,285.90217 451.81941,290.597885 450.45479,295.189608 Z M18.226766,319.559446 C16.3518116,315.152677 14.5936049,310.629352 13.0024802,306.115101 L26.1914772,301.480805 C27.6847295,305.717975 29.3352766,309.964917 31.0955805,314.101585 L18.226766,319.559446 Z M440.501872,322.268137 L427.706462,316.642073 C429.523392,312.522853 431.231264,308.295454 432.781842,304.077825 L445.907222,308.887304 C444.255976,313.379221 442.437647,317.881608 440.501872,322.268137 Z M31.1724802,345.327949 C28.7550334,341.189885 26.4403526,336.924099 24.2920547,332.647844 L36.7903526,326.38945 C38.8072219,330.404677 40.9806869,334.410831 43.2499271,338.295544 L31.1724802,345.327949 Z M427.215702,347.873322 L415.229836,340.686673 C417.54941,336.830576 419.776705,332.851641 421.847404,328.859446 L434.262511,335.280459 C432.056188,339.530891 429.685581,343.768062 427.215702,347.873322 Z M47.2536049,369.267859 C44.3391064,365.466898 41.5071003,361.524955 38.8365836,357.550208 L50.4484377,349.775198 C52.956766,353.507761 55.6167964,357.211011 58.3551246,360.781653 L47.2536049,369.267859 Z M410.825581,371.610133 L399.832419,362.984339 C402.618985,359.445105 405.327252,355.774658 407.881021,352.075596 L419.392207,359.999266 C416.673453,363.936324 413.791112,367.842673 410.825581,371.610133 Z" mask="url(#page-home__cover-img-c)"/>
    </g>
    <path fill="#647391" d="M396.789589 437L386 427.7662C387.652372 426.206255 389.29953 424.602793 390.894538 423L402 431.927168C400.301439 433.633064 398.548494 435.340299 396.789589 437M460 280L446.015389 280C446.015389 160.370297 349.111126 63.0454135 230 63.0454135 110.888874 63.0454135 13.9846108 160.370297 13.9846108 280L0 280C0 218.297796 23.924173 160.288132 67.3652689 116.658161 110.807064 73.0281912 168.564905 49 230 49 291.435095 49 349.192936 73.0281912 392.634731 116.658161 436.075827 160.288132 460 218.297796 460 280"/>
    <path fill="url(#page-home__cover-img-d)" d="M414,278 C414,379.068264 332.068264,461 231,461 C129.931736,461 48,379.068264 48,278 C48,176.931736 129.931736,95 231,95 C332.068264,95 414,176.931736 414,278"/>
    <polygon fill="#FEFEFE" points="47 298 413 298 413 284 47 284"/>
    <path fill="#FEFEFE" d="M228.99965,215 C170.608983,215 114.842709,200.825524 76,176.110101 L83.4031412,164.000714 C120.086601,187.341789 173.154337,200.728477 228.99965,200.728477 C284.845663,200.728477 337.913399,187.341789 374.596859,164 L382,176.109387 C343.157291,200.825524 287.390318,215 228.99965,215"/>
    <path fill="#647391" d="M230,102.955732 C132.949041,102.955732 53.9925545,181.704439 53.9925545,278.5 C53.9925545,375.295561 132.949041,454.044268 230,454.044268 C327.050959,454.044268 406.007446,375.295561 406.007446,278.5 C406.007446,181.704439 327.050959,102.955732 230,102.955732 M230,468 C179.249005,468 131.536493,448.288924 95.6497885,412.496658 C59.7637836,376.70509 40,329.11744 40,278.5 C40,227.88256 59.7637836,180.295607 95.6497885,144.503342 C131.536493,108.711774 179.249005,89 230,89 C280.750995,89 328.464207,108.711774 364.350212,144.503342 C400.236916,180.295607 420,227.88256 420,278.5 C420,329.11744 400.236916,376.70509 364.350212,412.496658 C328.464207,448.288924 280.750995,468 230,468"/>
    <path fill="#647391" d="M230,101.971179 C207.383533,101.971179 185.744321,119.665677 169.067851,151.795896 C151.633008,185.390294 142.030937,230.209836 142.030937,277.999651 C142.030937,325.789465 151.633008,370.609706 169.067851,404.203406 C185.744321,436.333624 207.383533,454.028821 230,454.028821 C252.616467,454.028821 274.255679,436.333624 290.932149,404.203406 C308.366992,370.609706 317.969063,325.789465 317.969063,277.999651 C317.969063,230.209836 308.366992,185.390294 290.932149,151.795896 C274.255679,119.665677 252.616467,101.971179 230,101.971179 M230,468 C201.874286,468 175.808313,447.621638 156.603468,410.617574 C138.158398,375.078388 128,327.980146 128,277.999651 C128,228.019155 138.158398,180.922311 156.603468,145.382426 C175.808313,108.378362 201.874286,88 230,88 C258.125714,88 284.191687,108.378362 303.396532,145.382426 C321.841602,180.922311 332,228.019155 332,277.999651 C332,327.980146 321.841602,375.078388 303.396532,410.617574 C284.191687,447.621638 258.125714,468 230,468"/>
    <polygon fill="#647391" points="223 462 237 462 237 95 223 95"/>
    <path fill="#102335" d="M96.0759374,402 L89,389.98895 C124.810056,369.023587 176.202824,357 230.000349,357 C283.797874,357 335.190643,369.023587 371,389.988253 L363.924063,402 C330.196685,382.253432 281.383336,370.929085 230.000349,370.929085 C178.618061,370.929085 129.804014,382.253432 96.0759374,402"/>
    <path fill="#647391" d="M229.999651,200 C176.202126,200 124.810056,187.975903 89,167.011561 L96.0759374,155.000696 C129.803315,174.746262 178.617362,186.07113 229.999651,186.07113 C281.382638,186.07113 330.196685,174.745566 363.924063,155 L371,167.010865 C335.189944,187.975207 283.797176,200 229.999651,200"/>
    <polygon fill="#647391" points="47 286 413 286 413 272 47 272"/>
    <path fill="#709BE7" d="M290,66.0003494 C290,98.5850621 263.585062,125 230.999651,125 C198.414938,125 172,98.5850621 172,66.0003494 C172,33.4156367 198.414938,7 230.999651,7 C263.585062,7 290,33.4156367 290,66.0003494"/>
    <path fill="#FEFEFE" d="M231,23.9031977 C260.741786,23.9031977 285.33828,46.1158869 289.405318,75 C289.793853,72.2380488 290,69.4175578 290,66.5476959 C290,33.6603051 263.58452,7 231,7 C198.41548,7 172,33.6603051 172,66.5476959 C172,69.4175578 172.206147,72.2380488 172.594682,75 C176.66172,46.1158869 201.258214,23.9031977 231,23.9031977"/>
    <path fill="#647391" d="M230,13.9786825 C201.315196,13.9786825 177.978608,37.315394 177.978608,66.0003495 C177.978608,94.684606 201.315196,118.021317 230,118.021317 C258.684804,118.021317 282.021392,94.684606 282.021392,66.0003495 C282.021392,37.315394 258.684804,13.9786825 230,13.9786825 M230,132 C193.608091,132 164,102.392452 164,66.0003495 C164,29.6068496 193.608091,0 230,0 C266.392608,0 296,29.6068496 296,66.0003495 C296,102.392452 266.392608,132 230,132"/>
    <polygon fill="#FEFEFE" points="88 295 229.5 213 371 295 371 459 229.5 541 88 459"/>
    <path fill="#709BE7" d="M275.020248,394 C261.029296,438.129841 198.971403,438.129841 184.979752,394 C159.6087,401.176911 141,424.610888 141,452.433725 L141,484.29797 L230.00035,536 L319,484.29797 L319,452.433725 C319,424.610888 300.391999,401.176911 275.020248,394"/>
    <path fill="#647391" d="M325 493L311.018111 493 311.018111 454.093312C311.018111 423.223774 287.583067 399.041501 257.665319 399.041501L200.334681 399.041501C170.916087 399.041501 146.981889 423.077743 146.981889 452.621763L146.981889 493 133 493 133 452.621763C133 415.335259 163.206473 385 200.334681 385L257.665319 385C275.744601 385 292.668979 392.114127 305.319093 405.031605 318.010454 417.991209 325 435.414606 325 454.093312L325 493zM229.5 269.940999C205.481604 269.940999 185.941084 289.481401 185.941084 313.500349 185.941084 337.518599 205.481604 357.059001 229.5 357.059001 253.518396 357.059001 273.058916 337.518599 273.058916 313.500349 273.058916 289.481401 253.518396 269.940999 229.5 269.940999M229.5 371C197.79449 371 172 345.205666 172 313.500349 172 281.794334 197.79449 256 229.5 256 261.20551 256 287 281.794334 287 313.500349 287 345.205666 261.20551 371 229.5 371"/>
    <polygon fill="#647391" points="274 510 288 510 288 469 274 469"/>
    <polygon fill="#647391" points="172 510 186 510 186 469 172 469"/>
    <path fill="#647391" d="M231 345C218.317744 345 208 334.682256 208 322L218.588257 322C218.588257 328.844269 224.155731 334.411743 231 334.411743 237.84356 334.411743 243.411743 328.844269 243.411743 322L254 322C254 334.682256 243.681548 345 231 345M206 307.5C206 312.194402 209.805428 316 214.499622 316 219.193815 316 223 312.194402 223 307.5 223 302.805598 219.193815 299 214.499622 299 209.805428 299 206 302.805598 206 307.5M240 307.5C240 312.194402 243.805428 316 248.499622 316 253.193815 316 257 312.194402 257 307.5 257 302.805598 253.193815 299 248.499622 299 243.805428 299 240 302.805598 240 307.5"/>
    <path fill="#647391" d="M94.994421,455.19616 L230,532.892319 L365.005579,455.19616 L365.005579,299.80384 L230,222.106983 L94.994421,299.80384 L94.994421,455.19616 Z M230,549 L81,463.25 L81,291.75 L230,206 L379,291.75 L379,463.25 L230,549 Z"/>
    <polygon fill="#FEFEFE" points="196 462 264 462 264 448 196 448"/>
    <polygon fill="#FEFEFE" points="196 497 264 497 264 483 196 483"/>
    <g fill="#FFF" transform="translate(213 46)">
      <ellipse cx="17.5" cy="17.571" rx="17.5" ry="17.571"/>
      <rect width="14.512" height="32.571" x="10.244" y="21.429"/>
    </g>
  </g>
</svg>
