<svg xmlns="http://www.w3.org/2000/svg" xmlns:xlink="http://www.w3.org/1999/xlink" width="709" height="810" viewBox="0 0 709 810">
  <defs>
    <filter id="page-home__cover-img-a" width="146.8%" height="139.3%" x="-19.8%" y="-16.6%" filterUnits="objectBoundingBox">
      <feOffset dx="20" dy="20" in="SourceAlpha" result="shadowOffsetOuter1"/>
      <feGaussianBlur in="shadowOffsetOuter1" result="shadowBlurOuter1" stdDeviation="40"/>
      <feColorMatrix in="shadowBlurOuter1" result="shadowMatrixOuter1" values="0 0 0 0 0.0901960784   0 0 0 0 0.129411765   0 0 0 0 0.2  0 0 0 0.4 0"/>
      <feMerge>
        <feMergeNode in="shadowMatrixOuter1"/>
        <feMergeNode in="SourceGraphic"/>
      </feMerge>
    </filter>
    <polygon id="page-home__cover-img-b" points="0 .4 554.89 .4 554.89 448.529 0 448.529"/>
    <linearGradient id="page-home__cover-img-d" x1="100%" x2=".594%" y1="0%" y2="99.406%">
      <stop offset="0%" stop-color="#FA2B56"/>
      <stop offset="100%" stop-color="#F91C3D"/>
    </linearGradient>
  </defs>
  <g fill="none" fill-rule="evenodd" filter="url(#page-home__cover-img-a)" transform="translate(57 56)">
    <path fill="#647391" d="M74.7520523,524 C72.809378,521.947022 70.8742173,519.837652 69,517.728282 L81.5969111,507 C83.3575901,508.981059 85.1758731,510.962934 87,512.890871 L74.7520523,524 Z"/>
    <g transform="translate(0 59)">
      <mask id="page-home__cover-img-c" fill="#fff">
        <use xlink:href="#page-home__cover-img-b"/>
      </mask>
      <path fill="#647391" d="M254.53852,18.1583013 L253.072578,1.37429381 C258.824166,0.873064916 264.676126,0.546213133 270.464827,0.400477674 L270.887403,17.2434533 C265.445366,17.3799223 259.945131,17.6873989 254.53852,18.1583013 Z M303.591073,18.4464026 C298.195427,17.9097929 292.701939,17.536609 287.263277,17.3369598 L287.88238,0.500723452 C293.671081,0.71300863 299.51798,1.11062214 305.262821,1.68092795 L303.591073,18.4464026 Z M222.191635,23.0282244 L218.634743,6.55843265 C224.285959,5.34116248 230.052729,4.2873182 235.774796,3.42722627 L238.287479,20.0865583 C232.914606,20.8952638 227.498717,21.8850856 222.191635,23.0282244 Z M335.87048,23.7215208 C330.578581,22.5093051 325.17703,21.4512488 319.815123,20.5751512 L322.538672,3.9486728 C328.24893,4.88121126 334.002205,6.00834447 339.639926,7.29890356 L335.87048,23.7215208 Z M190.721954,31.9197722 L185.112068,16.0303951 C190.568444,14.1088773 196.157243,12.3373069 201.723269,10.7645433 L206.31678,26.9757178 C201.09067,28.4524477 195.844318,30.1153482 190.721954,31.9197722 Z M367.248223,33.0283726 C362.140199,31.1540293 356.906498,29.420367 351.694728,27.8745602 L356.495731,11.7231962 C362.048261,13.3692488 367.623565,15.2174777 373.064758,17.2139692 L367.248223,33.0283726 Z M160.646521,44.699003 L153.075579,29.642761 C158.240116,27.0523764 163.553102,24.5942488 168.867775,22.3357704 L175.471263,37.8384852 C170.483011,39.9588098 165.495602,42.2661475 160.646521,44.699003 Z M397.21485,46.2237497 C392.382638,43.7218173 387.412099,41.342033 382.441559,39.1534739 L389.247479,23.7375265 C394.541909,26.0692938 399.834652,28.6015527 404.980632,31.2677535 L397.21485,46.2237497 Z M132.419964,61.1527891 L123.017859,47.1638698 C127.818862,43.9450537 132.782653,40.8391193 137.772593,37.9303069 L146.276407,52.4811081 C141.590116,55.2121737 136.928284,58.1294101 132.419964,61.1527891 Z M425.274401,63.0717797 C420.797289,59.986063 416.166666,57.0039617 411.510739,54.2080311 L420.202646,39.768427 C425.15969,42.7454739 430.089743,45.9204852 434.856164,49.2050086 L425.274401,63.0717797 Z M106.458109,81.0174589 L95.3825699,68.3098323 C99.7441277,64.5181831 104.281126,60.8158285 108.869576,57.3046991 L119.129485,70.6786653 C114.819378,73.9766672 110.555663,77.4557854 106.458109,81.0174589 Z M451.000085,83.2868886 C446.943862,79.6679317 442.723163,76.1315302 438.454386,72.7779298 L448.885518,59.537063 C453.429264,63.1063182 457.921559,66.8693257 462.238413,70.7207854 L451.000085,83.2868886 Z M83.1675091,103.971215 L70.5922888,92.7411606 C74.4477675,88.4348041 78.489652,84.1949974 82.6066049,80.1379917 L94.4547584,92.1312619 C90.5874711,95.9422863 86.7901915,99.9251606 83.1675091,103.971215 Z M473.994629,106.535485 C470.424242,102.443941 466.678413,98.4122075 462.861734,94.5531662 L474.862555,82.7132131 C478.925526,86.8207629 482.911742,91.1119561 486.712395,95.4663295 L473.994629,106.535485 Z M62.9150699,129.65351 L49.0350091,120.077089 C52.3228359,115.325945 55.805503,110.612708 59.3868556,106.07048 L72.6393784,116.495198 C69.2747964,120.762804 66.0029954,125.189624 62.9150699,129.65351 Z M493.897874,132.454495 C490.870678,127.954386 487.659606,123.4905 484.354067,119.185829 L497.739014,108.932117 C501.258793,113.513939 504.677357,118.266768 507.900237,123.057506 L493.897874,132.454495 Z M46.0314301,157.669256 L31.0599255,149.906526 C33.7261185,144.777144 36.5930562,139.662924 39.579766,134.707919 L54.0325395,143.396448 C51.2280182,148.050716 48.5356778,152.853247 46.0314301,157.669256 Z M510.387616,160.637037 C507.950845,155.798283 505.326825,150.97048 502.587251,146.290097 L517.153049,137.789423 C520.069751,142.774755 522.86415,147.914247 525.458649,153.067217 L510.387616,160.637037 Z M32.8033678,187.591358 L16.9715289,181.774575 C18.9713845,176.34614 21.1719848,170.909281 23.5126003,165.614787 L38.9446368,172.420549 C36.7474103,177.390718 34.680921,182.495671 32.8033678,187.591358 Z M523.197319,190.667808 C521.38893,185.554431 519.392448,180.431787 517.262699,175.440558 L532.782456,168.836131 C535.050533,174.152526 537.176909,179.610446 539.103383,185.057414 L523.197319,190.667808 Z M23.4687401,218.925324 L7.02791945,215.15305 C8.32348176,209.520753 9.81641489,203.856446 11.4662325,198.319341 L27.6354574,203.123556 C26.0868556,208.322016 24.6850167,213.638412 23.4687401,218.925324 Z M532.116962,222.094438 C530.968163,216.791521 529.635488,211.457435 528.155207,206.241284 L544.384318,201.645984 C545.961597,207.202465 547.381149,212.884463 548.605017,218.532765 L532.116962,222.094438 Z M18.1709362,251.161502 L1.38598176,249.484281 C1.96206839,243.730678 2.72877812,237.92569 3.66418085,232.230213 L20.3116505,234.958752 C19.4327599,240.307159 18.7124407,245.758339 18.1709362,251.161502 Z M537.008216,254.398009 C536.533345,248.985579 535.880503,243.52429 535.069933,238.167459 L551.749454,235.649521 C552.613163,241.351737 553.307334,247.165149 553.81257,252.924648 L537.008216,254.398009 Z M0.0853586626,284.237555 L0.0710197568,283.599857 C0.0237857143,281.511543 0.000168693009,279.387007 0.000168693009,277.289427 C0.000168693009,273.818733 0.0651155015,270.303391 0.195009119,266.841121 L17.0516581,267.467868 C16.9310426,270.722065 16.8694696,274.026806 16.8694696,277.289427 C16.8694696,279.261489 16.8922432,281.259665 16.9361033,283.228358 L16.9495988,283.821408 L0.0853586626,284.237555 Z M554.704956,287.702352 L537.84662,287.091611 C537.961331,283.919127 538.020374,280.700311 538.020374,277.522772 C538.020374,275.548183 537.9976,273.550849 537.95374,271.584684 L537.933497,270.727119 L554.796894,270.293283 L554.818824,271.208973 C554.865214,273.298129 554.889675,275.423508 554.889675,277.522772 C554.889675,280.902487 554.827258,284.327692 554.704956,287.702352 Z M3.09737234,318.880474 C2.23956839,313.179943 1.55214438,307.368215 1.0519696,301.608716 L17.8580106,300.152204 C18.3278207,305.564633 18.9747584,311.024238 19.779424,316.380226 L3.09737234,318.880474 Z M551.262775,322.349483 L534.614462,319.635266 C535.489135,314.281804 536.204394,308.82557 536.741681,303.41651 L553.529166,305.078568 C552.957296,310.838067 552.194804,316.648952 551.262775,322.349483 Z M10.4253967,352.885695 C8.85402128,347.32753 7.44037386,341.64469 6.2232538,335.996388 L22.7155258,332.452405 C23.8575775,337.756164 25.1851915,343.090251 26.6595684,348.308086 L10.4253967,352.885695 Z M543.483497,356.290682 L527.310898,351.499945 C528.856126,346.297273 530.254591,340.975823 531.467494,335.683857 L547.910845,339.443495 C546.6195,345.080845 545.129941,350.748523 543.483497,356.290682 Z M21.9909894,385.704815 C19.7288161,380.385892 17.6075015,374.926288 15.6877751,369.477635 L31.6005866,363.884089 C33.402228,368.998309 35.3936489,374.124322 37.5174939,379.117236 L21.9909894,385.704815 Z M531.475085,388.974176 L516.037144,382.183577 C518.22931,377.211723 520.289895,372.109298 522.160701,367.018665 L537.996757,372.823654 C536.004492,378.24535 533.81064,383.679682 531.475085,388.974176 Z M37.6102751,416.807121 C34.6935729,411.812523 31.9008602,406.663765 29.3088921,401.502371 L44.3883602,393.948556 C46.8217568,398.794892 49.4440897,403.630277 52.1819772,408.319084 L37.6102751,416.807121 Z M515.445032,419.879359 L500.983824,411.205151 C503.782441,406.550883 506.46972,401.748352 508.968064,396.929815 L523.94716,404.679909 C521.285184,409.810134 518.424994,414.924354 515.445032,419.879359 Z M57.0125015,445.702335 C53.4960957,441.114617 50.0792188,436.356733 46.8571824,431.559256 L60.8671368,422.174904 C63.8934894,426.680067 67.1028739,431.149849 70.4067264,435.459575 L57.0125015,445.702335 Z M495.669994,448.529435 L482.406506,438.118194 C485.768558,433.846376 489.036141,429.416187 492.117319,424.951459 L506.005815,434.515243 C502.725579,439.26723 499.247973,443.982151 495.669994,448.529435 Z" mask="url(#page-home__cover-img-c)"/>
    </g>
    <path fill="#647391" d="M478.812637 527L466 515.787528C467.962192 513.89331 469.918192 511.946248 471.812264 510L485 520.840132C482.982959 522.911578 480.901336 524.984649 478.812637 527M555 337L538.127263 337C538.127263 193.030055 421.210163 75.9031383 277.5 75.9031383 133.789837 75.9031383 16.872737 193.030055 16.872737 337L0 337C0 262.743668 28.8650348 192.931171 81.2776614 140.424108 133.691132 87.9170439 203.377223 59 277.5 59 351.622777 59 421.308868 87.9170439 473.722339 140.424108 526.134965 192.931171 555 262.743668 555 337"/>
    <path fill="url(#page-home__cover-img-d)" d="M500,335.5 C500,457.278974 401.055117,556 279,556 C156.944883,556 58,457.278974 58,335.5 C58,213.721026 156.944883,115 279,115 C401.055117,115 500,213.721026 500,335.5"/>
    <polygon fill="#FEFEFE" points="57 360 499 360 499 343 57 343"/>
    <path fill="#FEFEFE" d="M276.499578,259 C206.087303,259 138.839738,242.046215 92,212.48463 L100.927317,198.000853 C145.163254,225.91861 209.156701,241.930139 276.499578,241.930139 C343.843299,241.930139 407.836746,225.91861 452.072683,198 L461,212.483777 C414.160262,242.046215 346.911854,259 276.499578,259"/>
    <path fill="#647391" d="M277,123.827888 C160.028055,123.827888 64.8647104,218.783452 64.8647104,335.5 C64.8647104,452.216548 160.028055,547.172112 277,547.172112 C393.971945,547.172112 489.13529,452.216548 489.13529,335.5 C489.13529,218.783452 393.971945,123.827888 277,123.827888 M277,564 C215.831695,564 158.325563,540.232291 115.07264,497.073807 C71.8205602,453.916164 48,396.534749 48,335.5 C48,274.465251 71.8205602,217.084677 115.07264,173.926193 C158.325563,130.76855 215.831695,107 277,107 C338.168305,107 395.675281,130.76855 438.92736,173.926193 C482.180283,217.084677 506,274.465251 506,335.5 C506,396.534749 482.180283,453.916164 438.92736,497.073807 C395.675281,540.232291 338.168305,564 277,564"/>
    <path fill="#647391" d="M277,122.838947 C249.727201,122.838947 223.632857,144.165474 203.522996,182.890843 C182.498628,223.380933 170.919659,277.400276 170.919659,334.999579 C170.919659,392.598882 182.498628,446.619067 203.522996,487.108315 C223.632857,525.833684 249.727201,547.161053 277,547.161053 C304.272799,547.161053 330.367143,525.833684 350.477004,487.108315 C371.501372,446.619067 383.080341,392.598882 383.080341,334.999579 C383.080341,277.400276 371.501372,223.380933 350.477004,182.890843 C330.367143,144.165474 304.272799,122.838947 277,122.838947 M277,564 C243.083697,564 211.651201,539.438712 188.492417,494.839076 C166.249833,452.005004 154,395.239229 154,334.999579 C154,274.759929 166.249833,217.995838 188.492417,175.160924 C211.651201,130.561288 243.083697,106 277,106 C310.916303,106 342.348799,130.561288 365.507583,175.160924 C387.750167,217.995838 400,274.759929 400,334.999579 C400,395.239229 387.750167,452.005004 365.507583,494.839076 C342.348799,539.438712 310.916303,564 277,564"/>
    <polygon fill="#647391" points="269 557 286 557 286 115 269 115"/>
    <path fill="#102335" d="M115.531272,484 L107,469.58674 C150.175245,444.428304 212.138157,430 277.000421,430 C341.862685,430 403.825597,444.428304 447,469.585904 L438.468728,484 C397.804514,460.304118 338.95154,446.714903 277.000421,446.714903 C215.050144,446.714903 156.196328,460.304118 115.531272,484"/>
    <path fill="#647391" d="M276.999579,241 C212.137315,241 150.175245,226.571084 107,201.413873 L115.531272,187.000836 C156.195486,210.695515 215.049302,224.285356 276.999579,224.285356 C338.950698,224.285356 397.804514,210.694679 438.468728,187 L447,201.413037 C403.824755,226.570248 341.861843,241 276.999579,241"/>
    <polygon fill="#647391" points="57 345 499 345 499 328 57 328"/>
    <path fill="#709BE7" d="M349,79.0004205 C349,118.212532 317.212532,150 277.99958,150 C238.787468,150 207,118.212532 207,79.0004205 C207,39.7883086 238.787468,8 277.99958,8 C317.212532,8 349,39.7883086 349,79.0004205"/>
    <path fill="#FEFEFE" d="M278,28.3832678 C313.790963,28.3832678 343.390134,55.1691577 348.284366,90 C348.751925,86.6694118 349,83.2682315 349,79.8075156 C349,40.1491915 317.21188,8 278,8 C238.78812,8 207,40.1491915 207,79.8075156 C207,83.2682315 207.248075,86.6694118 207.715634,90 C212.609866,55.1691577 242.209037,28.3832678 278,28.3832678"/>
    <path fill="#647391" d="M277.5,16.8379585 C242.94785,16.8379585 214.837869,44.9480883 214.837869,79.5004209 C214.837869,114.051912 242.94785,142.162042 277.5,142.162042 C312.05215,142.162042 340.162131,114.051912 340.162131,79.5004209 C340.162131,44.9480883 312.05215,16.8379585 277.5,16.8379585 M277.5,159 C233.664291,159 198,123.336362 198,79.5004209 C198,35.6627961 233.664291,0 277.5,0 C321.336551,0 357,35.6627961 357,79.5004209 C357,123.336362 321.336551,159 277.5,159"/>
    <polygon fill="#FEFEFE" points="106 356 277 257 448 356 448 554 277 653 106 554"/>
    <path fill="#709BE7" d="M331.87839,475 C314.979206,528.142273 240.021638,528.142273 223.12161,475 C192.476801,483.642618 170,511.862407 170,545.367373 L170,583.739104 L277.500422,646 L385,583.739104 L385,545.367373 C385,511.862407 362.524044,483.642618 331.87839,475"/>
    <path fill="#647391" d="M393 594L376.105217 594 376.105217 547.167876C376.105217 510.010099 347.787872 480.901807 311.637261 480.901807L242.362739 480.901807C206.815272 480.901807 177.894783 509.83432 177.894783 545.396567L177.894783 594 161 594 161 545.396567C161 500.514664 197.499488 464 242.362739 464L311.637261 464C333.48306 464 353.933349 472.5633 369.218904 488.112118 384.554298 503.71164 393 524.684247 393 547.167876L393 594zM277.5 325.850425C248.469069 325.850425 224.850527 349.468824 224.850527 378.500421 224.850527 407.531176 248.469069 431.149575 277.5 431.149575 306.530931 431.149575 330.149473 407.531176 330.149473 378.500421 330.149473 349.468824 306.530931 325.850425 277.5 325.850425M277.5 448C239.177688 448 208 416.822501 208 378.500421 208 340.177499 239.177688 309 277.5 309 315.822312 309 347 340.177499 347 378.500421 347 416.822501 315.822312 448 277.5 448"/>
    <polygon fill="#647391" points="331 616 348 616 348 566 331 566"/>
    <polygon fill="#647391" points="207 616 224 616 224 566 207 566"/>
    <path fill="#647391" d="M279 416C263.560732 416 251 403.439268 251 388L263.890052 388C263.890052 396.332153 270.667847 403.109948 279 403.109948 287.331291 403.109948 294.109948 396.332153 294.109948 388L307 388C307 403.439268 294.438406 416 279 416M248 370C248 375.522826 252.476974 380 257.999555 380 263.522136 380 268 375.522826 268 370 268 364.477174 263.522136 360 257.999555 360 252.476974 360 248 364.477174 248 370M289 370C289 375.522826 293.476974 380 298.999555 380 304.522136 380 309 375.522826 309 370 309 364.477174 304.522136 360 298.999555 360 293.476974 360 289 364.477174 289 370"/>
    <path fill="#647391" d="M114.859051,548.779038 L277.5,642.558076 L440.140949,548.779038 L440.140949,361.220962 L277.5,267.441082 L114.859051,361.220962 L114.859051,548.779038 Z M277.5,662 L98,558.5 L98,351.5 L277.5,248 L457,351.5 L457,558.5 L277.5,662 Z"/>
    <polygon fill="#FEFEFE" points="236 557 318 557 318 540 236 540"/>
    <polygon fill="#FEFEFE" points="236 599 318 599 318 582 236 582"/>
    <g fill="#FFF" transform="translate(257 56)">
      <ellipse cx="21" cy="21.151" rx="21" ry="21.151"/>
      <rect width="17.415" height="39.206" x="12.293" y="25.794"/>
    </g>
  </g>
</svg>
